<?xml version="1.0" encoding="utf-8"?>
<!-- Generator: Adobe Illustrator 16.0.0, SVG Export Plug-In . SVG Version: 6.00 Build 0)  -->
<!DOCTYPE svg PUBLIC "-//W3C//DTD SVG 1.1//EN" "http://www.w3.org/Graphics/SVG/1.1/DTD/svg11.dtd">
<svg version="1.1" id="Layer_1" xmlns="http://www.w3.org/2000/svg" xmlns:xlink="http://www.w3.org/1999/xlink" x="0px" y="0px"
	 width="800px" height="536.379px" viewBox="0 0 800 536.379" enable-background="new 0 0 800 536.379" xml:space="preserve">
<g>
	<g>
		<linearGradient id="SVGID_1_" gradientUnits="userSpaceOnUse" x1="16.4819" y1="257.6318" x2="783.584" y2="257.6318">
			<stop  offset="0" style="stop-color:#7827A8"/>
			<stop  offset="0.3253" style="stop-color:#6D32B0"/>
			<stop  offset="0.8997" style="stop-color:#5050C7"/>
			<stop  offset="1" style="stop-color:#4A56CB"/>
		</linearGradient>
		<path fill="url(#SVGID_1_)" d="M766.231,153.743L578.189,45.174c-23.024-13.292-60.244-13.296-83.117,0L33.558,313.381
			c-22.878,13.292-22.75,34.846,0.274,48.138l188.044,108.569c23.025,13.297,60.235,13.297,83.114,0l461.513-268.202
			C789.385,188.593,789.26,167.039,766.231,153.743z"/>
		<path fill="#27F5FF" d="M694.257,132.849c1.883-1.094,4.951-1.094,6.849,0c1.898,1.102,1.907,2.871,0.021,3.971
			c-1.886,1.094-4.953,1.094-6.854,0C692.38,135.724,692.366,133.95,694.257,132.849z"/>
		<path fill="#27F5FF" d="M623.219,91.844c1.295-0.757,3.413-0.757,4.713-0.005l57.576,33.241c1.307,0.757,1.31,1.98,0.016,2.728
			c-1.298,0.758-3.409,0.758-4.715,0l-57.575-33.237C621.934,93.818,621.924,92.591,623.219,91.844z"/>
		<linearGradient id="SVGID_2_" gradientUnits="userSpaceOnUse" x1="16.4155" y1="340.7168" x2="783.585" y2="340.7168">
			<stop  offset="0" style="stop-color:#611F87"/>
			<stop  offset="0.3765" style="stop-color:#562A90"/>
			<stop  offset="1" style="stop-color:#3C46A6"/>
		</linearGradient>
		<path fill="url(#SVGID_2_)" d="M766.504,201.886L304.991,470.088c-22.879,13.297-60.089,13.297-83.114,0L33.833,361.519
			c-11.591-6.689-17.376-15.468-17.352-24.238l-0.065,23.389c-0.028,8.77,5.763,17.553,17.347,24.247l188.046,108.567
			c23.03,13.29,60.24,13.29,83.114,0.005l461.52-268.208c11.359-6.606,17.05-15.25,17.072-23.901l0.07-23.397
			C783.557,186.642,777.869,195.284,766.504,201.886z"/>
		<linearGradient id="SVGID_3_" gradientUnits="userSpaceOnUse" x1="101.9375" y1="444.2207" x2="408.6064" y2="252.2688">
			<stop  offset="0" style="stop-color:#C4118B"/>
			<stop  offset="0.0784" style="stop-color:#B9148C"/>
			<stop  offset="0.2172" style="stop-color:#9B1B8E"/>
			<stop  offset="0.3991" style="stop-color:#6A2891"/>
			<stop  offset="0.4822" style="stop-color:#522E93"/>
			<stop  offset="0.6037" style="stop-color:#5855A9"/>
			<stop  offset="0.8737" style="stop-color:#67B6DF"/>
			<stop  offset="1" style="stop-color:#6EE5F9"/>
		</linearGradient>
		<path fill="url(#SVGID_3_)" d="M753.314,161.249c15.846,9.149,15.93,23.978,0.186,33.131L291.98,462.582
			c-15.737,9.148-41.343,9.148-57.19,0L46.75,354.019c-15.842-9.149-15.929-23.984-0.189-33.128L508.08,52.684
			c15.736-9.147,41.345-9.147,57.19,0l20.21,11.668c3.742,2.158,3.759,5.663,0.046,7.816c-7.231,4.208-7.19,11.019,0.087,15.222
			l107.722,62.192c7.278,4.202,19.035,4.202,26.267,0c3.716-2.159,9.763-2.159,13.501,0L753.314,161.249z"/>
		<linearGradient id="SVGID_4_" gradientUnits="userSpaceOnUse" x1="496.6699" y1="22.0801" x2="320.7961" y2="450.7726">
			<stop  offset="0" style="stop-color:#1B2268"/>
			<stop  offset="0.3055" style="stop-color:#1A2164"/>
			<stop  offset="0.5922" style="stop-color:#171D59"/>
			<stop  offset="0.8706" style="stop-color:#121646"/>
			<stop  offset="0.9949" style="stop-color:#0F123B"/>
		</linearGradient>
		<path fill="url(#SVGID_4_)" d="M263.427,463.947c-9.856,0-19.045-2.172-25.89-6.124l-188.04-108.57
			c-5.835-3.368-9.186-7.692-9.189-11.867c-0.006-4.131,3.278-8.415,9.016-11.75L510.842,57.435
			c6.783-3.942,15.946-6.119,25.793-6.119c9.854,0,19.046,2.181,25.89,6.128l18.827,10.873c-4.298,2.966-6.727,7.063-6.717,11.444
			c0.005,4.854,3.008,9.372,8.23,12.388l107.724,62.192c4.344,2.505,9.987,3.888,15.901,3.888c5.912,0,11.551-1.383,15.873-3.893
			c0.945-0.552,2.434-0.876,3.984-0.876c1.552,0,3.053,0.329,4.009,0.88l20.209,11.667c5.835,3.367,9.187,7.693,9.192,11.873
			c0.004,4.129-3.281,8.414-9.02,11.745L289.222,457.832C282.532,461.72,273.128,463.947,263.427,463.947z"/>
		<linearGradient id="SVGID_5_" gradientUnits="userSpaceOnUse" x1="268.9551" y1="76.8071" x2="268.9551" y2="51.3305">
			<stop  offset="0" style="stop-color:#6EE8FD;stop-opacity:0"/>
			<stop  offset="1" style="stop-color:#6EE8FD"/>
		</linearGradient>
		<path fill="url(#SVGID_5_)" d="M269.135,76.12h-0.359c-0.857,0-1.557-0.703-1.557-1.561V52.876c0-0.858,0.7-1.561,1.557-1.561
			h0.359c0.858,0,1.557,0.703,1.557,1.561v21.683C270.692,75.417,269.993,76.12,269.135,76.12z"/>
		<linearGradient id="SVGID_6_" gradientUnits="userSpaceOnUse" x1="460.9492" y1="56.6733" x2="460.9492" y2="34.2911">
			<stop  offset="0" style="stop-color:#6EE8FD;stop-opacity:0"/>
			<stop  offset="1" style="stop-color:#6EE8FD"/>
		</linearGradient>
		<path fill="url(#SVGID_6_)" d="M460.949,56.069L460.949,56.069c-1.824,0-3.308-1.478-3.308-3.303V37.582
			c0-1.825,1.483-3.304,3.308-3.304l0,0c1.826,0,3.309,1.479,3.309,3.304v15.185C464.258,54.592,462.775,56.069,460.949,56.069z"/>
		<linearGradient id="SVGID_7_" gradientUnits="userSpaceOnUse" x1="363.6035" y1="87.0142" x2="363.6035" y2="63.7302">
			<stop  offset="0" style="stop-color:#6EE8FD;stop-opacity:0"/>
			<stop  offset="1" style="stop-color:#6EE8FD"/>
		</linearGradient>
		<path fill="url(#SVGID_7_)" d="M363.602,86.386L363.602,86.386c-1.827,0-3.304-1.478-3.304-3.303V67.021
			c0-1.825,1.477-3.304,3.304-3.304l0,0c1.823,0,3.307,1.479,3.307,3.304v16.063C366.909,84.908,365.425,86.386,363.602,86.386z"/>
		<linearGradient id="SVGID_8_" gradientUnits="userSpaceOnUse" x1="518.6221" y1="121.5708" x2="518.6221" y2="98.7091">
			<stop  offset="0" style="stop-color:#6EE8FD;stop-opacity:0"/>
			<stop  offset="1" style="stop-color:#6EE8FD"/>
		</linearGradient>
		<path fill="url(#SVGID_8_)" d="M518.626,120.954L518.626,120.954c-2.232,0-4.044-1.811-4.044-4.042V102.74
			c0-2.232,1.812-4.044,4.044-4.044l0,0c2.23,0,4.036,1.812,4.036,4.044v14.172C522.662,119.143,520.856,120.954,518.626,120.954z"
			/>
		<linearGradient id="SVGID_9_" gradientUnits="userSpaceOnUse" x1="297.8457" y1="142.666" x2="297.8457" y2="114.8513">
			<stop  offset="0" style="stop-color:#6EE8FD;stop-opacity:0"/>
			<stop  offset="1" style="stop-color:#6EE8FD"/>
		</linearGradient>
		<path fill="url(#SVGID_9_)" d="M297.844,141.916L297.844,141.916c-2.024,0-3.671-1.642-3.671-3.673v-19.734
			c0-2.025,1.647-3.673,3.671-3.673l0,0c2.032,0,3.674,1.648,3.674,3.673v19.734C301.519,140.273,299.876,141.916,297.844,141.916z"
			/>
		<g>
			<g>
				<linearGradient id="SVGID_10_" gradientUnits="userSpaceOnUse" x1="249.4966" y1="204.8101" x2="249.4966" y2="19.53">
					<stop  offset="0" style="stop-color:#6EE8FD;stop-opacity:0"/>
					<stop  offset="1" style="stop-color:#6EE8FD"/>
				</linearGradient>
				<path fill="url(#SVGID_10_)" d="M249.497,199.812L249.497,199.812c-2.491,0-4.518-2.018-4.518-4.513V23.939
					c0-2.492,2.027-4.518,4.518-4.518l0,0c2.496,0,4.517,2.026,4.517,4.518v171.359
					C254.014,197.794,251.992,199.812,249.497,199.812z"/>
				<linearGradient id="SVGID_11_" gradientUnits="userSpaceOnUse" x1="268.9551" y1="295.4736" x2="268.9551" y2="134.5875">
					<stop  offset="0" style="stop-color:#6EE8FD;stop-opacity:0"/>
					<stop  offset="1" style="stop-color:#6EE8FD"/>
				</linearGradient>
				<path fill="url(#SVGID_11_)" d="M268.958,291.133L268.958,291.133c-0.963,0-1.74-0.776-1.74-1.735V136.232
					c0-0.958,0.777-1.738,1.74-1.738l0,0c0.957,0,1.733,0.78,1.733,1.738v153.167C270.692,290.357,269.916,291.133,268.958,291.133z
					"/>
				<linearGradient id="SVGID_12_" gradientUnits="userSpaceOnUse" x1="329.6123" y1="306.1982" x2="329.6123" y2="76.1993">
					<stop  offset="0" style="stop-color:#6EE8FD;stop-opacity:0"/>
					<stop  offset="1" style="stop-color:#6EE8FD"/>
				</linearGradient>
				<path fill="url(#SVGID_12_)" d="M329.612,299.994L329.612,299.994c-3.182,0-5.757-2.574-5.757-5.754V81.824
					c0-3.18,2.576-5.758,5.757-5.758l0,0c3.181,0,5.758,2.578,5.758,5.758V294.24C335.37,297.419,332.793,299.994,329.612,299.994z"
					/>
				<linearGradient id="SVGID_13_" gradientUnits="userSpaceOnUse" x1="381.4326" y1="332.0391" x2="381.4326" y2="143.4365">
					<stop  offset="0" style="stop-color:#6EE8FD;stop-opacity:0"/>
					<stop  offset="1" style="stop-color:#6EE8FD"/>
				</linearGradient>
				<path fill="url(#SVGID_13_)" d="M381.432,326.951L381.432,326.951c-4.173,0-7.561-3.386-7.561-7.565V150.887
					c0-4.175,3.387-7.561,7.561-7.561l0,0c4.18,0,7.562,3.385,7.562,7.561v168.499C388.994,323.565,385.612,326.951,381.432,326.951
					z"/>
				<linearGradient id="SVGID_14_" gradientUnits="userSpaceOnUse" x1="435.2832" y1="267.8442" x2="435.2832" y2="97.3179">
					<stop  offset="0" style="stop-color:#6EE8FD;stop-opacity:0"/>
					<stop  offset="1" style="stop-color:#6EE8FD"/>
				</linearGradient>
				<path fill="url(#SVGID_14_)" d="M435.284,263.244L435.284,263.244c-2.332,0-4.223-1.894-4.223-4.225V101.444
					c0-2.335,1.891-4.226,4.223-4.226l0,0c2.333,0,4.221,1.891,4.221,4.226v157.575C439.505,261.35,437.617,263.244,435.284,263.244
					z"/>
				<linearGradient id="SVGID_15_" gradientUnits="userSpaceOnUse" x1="545.1113" y1="269.8794" x2="545.1113" y2="23.9091">
					<stop  offset="0" style="stop-color:#6EE8FD;stop-opacity:0"/>
					<stop  offset="1" style="stop-color:#6EE8FD"/>
				</linearGradient>
				<path fill="url(#SVGID_15_)" d="M545.109,263.244L545.109,263.244c3.247,0,5.886-2.637,5.886-5.886V29.651
					c0-3.253-2.639-5.886-5.886-5.886l0,0c-3.25,0-5.883,2.632-5.883,5.886v227.706
					C539.227,260.607,541.859,263.244,545.109,263.244z"/>
				<linearGradient id="SVGID_16_" gradientUnits="userSpaceOnUse" x1="490.0371" y1="280.9448" x2="490.0371" y2="78.7927">
					<stop  offset="0" style="stop-color:#6EE8FD;stop-opacity:0"/>
					<stop  offset="1" style="stop-color:#6EE8FD"/>
				</linearGradient>
				<path fill="url(#SVGID_16_)" d="M490.039,275.491L490.039,275.491c2.777,0,5.033-2.254,5.033-5.034V83.712
					c0-2.783-2.256-5.038-5.033-5.038l0,0c-2.784,0-5.037,2.255-5.037,5.038v186.745
					C485.002,273.237,487.255,275.491,490.039,275.491z"/>
			</g>
		</g>
	</g>
</g>
</svg>
