<?xml version="1.0" encoding="utf-8"?>
<!-- Generator: Adobe Illustrator 16.0.0, SVG Export Plug-In . SVG Version: 6.00 Build 0)  -->
<!DOCTYPE svg PUBLIC "-//W3C//DTD SVG 1.1//EN" "http://www.w3.org/Graphics/SVG/1.1/DTD/svg11.dtd">
<svg version="1.1" id="Layer_1" xmlns="http://www.w3.org/2000/svg" xmlns:xlink="http://www.w3.org/1999/xlink" x="0px" y="0px"
	 width="216px" height="154px" viewBox="0 0 216 154" enable-background="new 0 0 216 154" xml:space="preserve">
<g>
	<linearGradient id="SVGID_1_" gradientUnits="userSpaceOnUse" x1="7.2568" y1="106.1816" x2="208.3379" y2="106.1816">
		<stop  offset="0" style="stop-color:#611F87"/>
		<stop  offset="0.3765" style="stop-color:#562A90"/>
		<stop  offset="1" style="stop-color:#3C46A6"/>
	</linearGradient>
	<path fill="url(#SVGID_1_)" d="M179.131,104.377c-0.631,0.366-1.269,0.727-1.91,1.081c-0.214,0.118-0.432,0.231-0.645,0.347
		c-0.433,0.234-0.865,0.468-1.303,0.698c-0.263,0.137-0.528,0.27-0.791,0.405c-0.396,0.204-0.792,0.406-1.192,0.605
		c-0.284,0.14-0.572,0.278-0.859,0.417c-0.385,0.187-0.77,0.374-1.158,0.558c-0.3,0.14-0.601,0.277-0.901,0.416
		c-0.383,0.176-0.766,0.352-1.151,0.525c-0.308,0.137-0.62,0.271-0.931,0.407c-0.383,0.167-0.767,0.334-1.154,0.497
		c-0.316,0.133-0.635,0.265-0.956,0.397c-0.384,0.159-0.771,0.317-1.158,0.471c-0.324,0.131-0.65,0.257-0.976,0.385
		c-0.391,0.152-0.779,0.302-1.171,0.45c-0.33,0.124-0.662,0.249-0.993,0.37c-0.393,0.146-0.787,0.289-1.184,0.43
		c-0.333,0.119-0.667,0.236-1.002,0.353c-0.4,0.14-0.802,0.276-1.205,0.412c-0.335,0.113-0.671,0.226-1.009,0.337
		c-0.407,0.132-0.816,0.263-1.228,0.393c-0.335,0.106-0.671,0.214-1.009,0.317c-0.418,0.129-0.837,0.254-1.255,0.38
		c-0.336,0.099-0.671,0.199-1.009,0.298c-0.428,0.123-0.859,0.243-1.29,0.362c-0.33,0.093-0.66,0.188-0.992,0.277
		c-0.448,0.12-0.897,0.237-1.348,0.355c-0.318,0.083-0.638,0.167-0.957,0.249c-0.48,0.122-0.966,0.239-1.451,0.357
		c-0.29,0.07-0.581,0.143-0.874,0.212c-0.57,0.135-1.146,0.264-1.722,0.393c-0.208,0.047-0.414,0.097-0.623,0.14
		c-0.454,0.102-0.912,0.194-1.367,0.29c-0.313,0.065-0.624,0.134-0.937,0.199c-0.491,0.1-0.985,0.193-1.478,0.288
		c-0.281,0.054-0.561,0.111-0.843,0.163c-0.641,0.12-1.283,0.234-1.926,0.347c-0.136,0.024-0.271,0.05-0.407,0.073
		c-0.78,0.133-1.564,0.262-2.347,0.385c-0.716,0.112-1.432,0.218-2.15,0.32c-0.222,0.032-0.445,0.061-0.669,0.094
		c-0.505,0.07-1.011,0.137-1.516,0.202c-0.254,0.034-0.508,0.065-0.765,0.098c-0.496,0.062-0.993,0.121-1.491,0.179
		c-0.236,0.028-0.474,0.054-0.712,0.08c-0.267,0.031-0.534,0.058-0.802,0.085c-0.789,0.084-1.58,0.162-2.371,0.233
		c-0.273,0.027-0.545,0.053-0.817,0.077c-0.995,0.084-1.992,0.166-2.991,0.235c-0.099,0.007-0.199,0.012-0.297,0.018
		c-0.835,0.056-1.67,0.106-2.506,0.15c-0.295,0.016-0.591,0.029-0.885,0.043c-0.664,0.033-1.328,0.059-1.993,0.083
		c-0.312,0.011-0.625,0.022-0.937,0.033c-0.629,0.02-1.256,0.034-1.886,0.046c-0.271,0.004-0.543,0.013-0.815,0.016
		c-0.896,0.014-1.792,0.024-2.688,0.022c-0.125,0-0.248-0.001-0.372-0.001c-0.735-0.003-1.473-0.009-2.209-0.019
		c-0.296-0.005-0.592-0.014-0.888-0.019c-0.565-0.012-1.131-0.023-1.695-0.04c-0.349-0.011-0.696-0.025-1.045-0.037
		c-0.497-0.017-0.994-0.036-1.489-0.059c-0.361-0.016-0.723-0.033-1.083-0.053c-0.486-0.023-0.974-0.05-1.46-0.079
		c-0.368-0.024-0.736-0.045-1.104-0.07c-0.463-0.03-0.928-0.062-1.391-0.097c-0.37-0.026-0.74-0.056-1.109-0.084
		c-0.466-0.038-0.931-0.078-1.396-0.118c-0.368-0.034-0.737-0.066-1.105-0.101c-0.445-0.043-0.89-0.088-1.334-0.135
		c-0.372-0.037-0.742-0.074-1.112-0.115c-0.449-0.05-0.897-0.102-1.343-0.154c-0.367-0.042-0.733-0.086-1.096-0.13
		c-0.451-0.057-0.898-0.117-1.346-0.177c-0.36-0.048-0.719-0.095-1.077-0.145c-0.459-0.064-0.917-0.131-1.373-0.198
		c-0.347-0.053-0.693-0.102-1.04-0.155c-0.47-0.073-0.941-0.152-1.412-0.228c-0.328-0.056-0.657-0.107-0.984-0.163
		c-0.506-0.086-1.006-0.176-1.509-0.267c-0.292-0.053-0.584-0.103-0.874-0.158c-0.8-0.149-1.598-0.302-2.392-0.462
		c-0.065-0.014-0.13-0.028-0.196-0.042c-0.729-0.149-1.457-0.302-2.182-0.46c-0.234-0.051-0.465-0.104-0.699-0.157
		c-0.57-0.129-1.138-0.257-1.706-0.391c-0.303-0.071-0.606-0.147-0.91-0.221c-0.492-0.119-0.984-0.239-1.476-0.365
		c-0.311-0.079-0.621-0.161-0.932-0.241c-0.503-0.132-1.008-0.265-1.509-0.402c-0.321-0.088-0.643-0.176-0.963-0.266
		c-0.487-0.137-0.975-0.278-1.46-0.418c-0.309-0.09-0.616-0.181-0.923-0.272c-0.618-0.186-1.234-0.376-1.846-0.569
		c-0.225-0.07-0.451-0.138-0.676-0.21c-0.827-0.266-1.65-0.537-2.466-0.818c-0.122-0.041-0.24-0.083-0.36-0.125
		c-0.802-0.277-1.599-0.561-2.389-0.854c-0.248-0.09-0.493-0.181-0.737-0.273c-0.833-0.312-1.66-0.629-2.479-0.958
		c-0.07-0.029-0.142-0.056-0.211-0.083c-0.123-0.049-0.244-0.1-0.367-0.149c-0.521-0.213-1.041-0.427-1.559-0.645
		c-0.223-0.095-0.445-0.192-0.667-0.288c-0.415-0.178-0.828-0.358-1.239-0.54c-0.244-0.108-0.489-0.219-0.73-0.329
		c-0.389-0.175-0.776-0.352-1.16-0.533c-0.246-0.114-0.491-0.229-0.735-0.345c-0.374-0.178-0.746-0.359-1.116-0.54
		c-0.257-0.126-0.516-0.252-0.773-0.38c-0.375-0.188-0.749-0.379-1.119-0.571c-0.242-0.123-0.481-0.246-0.722-0.372
		c-0.405-0.212-0.808-0.429-1.209-0.646c-0.2-0.108-0.399-0.214-0.599-0.323c-0.596-0.328-1.189-0.66-1.775-0.999
		c-0.557-0.321-1.104-0.648-1.646-0.975c-0.16-0.097-0.318-0.195-0.478-0.292c-0.391-0.24-0.778-0.482-1.163-0.724
		c-0.167-0.106-0.336-0.214-0.503-0.32c-0.453-0.292-0.9-0.584-1.341-0.879c-0.07-0.047-0.143-0.094-0.214-0.141
		c-0.506-0.342-1.004-0.686-1.495-1.034c-0.141-0.098-0.276-0.197-0.415-0.296c-0.356-0.255-0.71-0.511-1.059-0.769
		c-0.155-0.116-0.314-0.232-0.468-0.348c-0.353-0.267-0.704-0.535-1.05-0.805c-0.117-0.092-0.238-0.184-0.355-0.275
		c-0.453-0.357-0.898-0.716-1.336-1.079c-0.091-0.075-0.178-0.151-0.269-0.227c-0.348-0.291-0.692-0.583-1.03-0.877
		c-0.136-0.12-0.272-0.239-0.408-0.359c-0.299-0.265-0.596-0.531-0.886-0.798c-0.124-0.113-0.25-0.227-0.374-0.341
		c-0.396-0.369-0.787-0.739-1.169-1.112c-0.003-0.004-0.007-0.008-0.012-0.013c-0.385-0.376-0.76-0.756-1.129-1.138
		c-0.113-0.116-0.223-0.232-0.334-0.348c-0.261-0.275-0.52-0.55-0.773-0.827c-0.115-0.125-0.23-0.25-0.343-0.376
		c-0.276-0.306-0.547-0.613-0.813-0.921c-0.072-0.083-0.145-0.166-0.216-0.249c-0.333-0.392-0.659-0.785-0.977-1.181
		c-0.055-0.067-0.107-0.134-0.159-0.202c-0.271-0.339-0.535-0.68-0.794-1.022c-0.056-0.073-0.11-0.145-0.166-0.218
		c-0.285-0.381-0.563-0.765-0.833-1.148c-0.059-0.084-0.116-0.168-0.173-0.251c-0.248-0.355-0.49-0.711-0.724-1.069
		c-0.031-0.047-0.063-0.094-0.093-0.142c-0.254-0.39-0.5-0.783-0.738-1.174c-0.056-0.092-0.111-0.183-0.165-0.274
		c-0.238-0.398-0.47-0.796-0.695-1.196c-0.012-0.025-0.026-0.049-0.038-0.074c-0.223-0.401-0.438-0.803-0.645-1.206
		c-0.073-0.143-0.142-0.286-0.213-0.43c-0.142-0.286-0.284-0.572-0.42-0.86c-0.077-0.167-0.153-0.334-0.229-0.501
		c-0.12-0.266-0.238-0.532-0.353-0.798c-0.075-0.175-0.148-0.351-0.22-0.527c-0.117-0.284-0.231-0.568-0.341-0.853
		c-0.047-0.12-0.094-0.241-0.138-0.362c-0.153-0.414-0.303-0.827-0.44-1.242c-0.003-0.008-0.005-0.016-0.008-0.024
		c-0.134-0.408-0.26-0.816-0.382-1.225c-0.034-0.123-0.069-0.246-0.104-0.369c-0.095-0.334-0.185-0.668-0.271-1.003
		c-0.018-0.079-0.041-0.158-0.06-0.238c-0.1-0.405-0.191-0.812-0.276-1.219c-0.019-0.092-0.036-0.185-0.056-0.277
		c-0.072-0.356-0.137-0.714-0.196-1.07c-0.012-0.072-0.027-0.145-0.039-0.218c-0.065-0.406-0.123-0.812-0.173-1.218
		c-0.011-0.087-0.021-0.174-0.032-0.261c-0.049-0.413-0.092-0.826-0.124-1.24c-0.004-0.035-0.006-0.068-0.008-0.103
		c-0.029-0.374-0.052-0.748-0.067-1.122c-0.006-0.118-0.011-0.237-0.016-0.355c-0.013-0.418-0.023-0.837-0.021-1.256L7.257,90.938
		c-0.002,0.418,0.008,0.836,0.023,1.254c0.004,0.119,0.01,0.237,0.015,0.355c0.006,0.137,0.008,0.273,0.016,0.409
		c0.015,0.238,0.033,0.474,0.05,0.711c0.003,0.035,0.004,0.07,0.008,0.105c0.032,0.414,0.076,0.826,0.125,1.238
		c0.011,0.088,0.021,0.175,0.031,0.263c0.048,0.373,0.098,0.745,0.157,1.117c0.006,0.033,0.012,0.066,0.018,0.1
		c0.011,0.072,0.025,0.145,0.038,0.217c0.06,0.357,0.125,0.714,0.197,1.071c0.018,0.092,0.036,0.185,0.056,0.276
		c0.084,0.407,0.176,0.814,0.275,1.22c0.019,0.079,0.041,0.157,0.061,0.236c0.047,0.187,0.092,0.372,0.143,0.557
		c0.04,0.15,0.084,0.298,0.126,0.447c0.036,0.123,0.069,0.246,0.105,0.37c0.12,0.408,0.246,0.816,0.382,1.223
		c0.002,0.008,0.005,0.017,0.007,0.024c0.138,0.415,0.287,0.829,0.44,1.242c0.045,0.122,0.092,0.243,0.139,0.364
		c0.058,0.152,0.113,0.304,0.174,0.456c0.053,0.133,0.11,0.263,0.165,0.396c0.073,0.177,0.147,0.353,0.222,0.529
		c0.113,0.266,0.231,0.531,0.353,0.795c0.075,0.168,0.15,0.336,0.229,0.503c0.134,0.288,0.276,0.574,0.42,0.86
		c0.071,0.143,0.14,0.287,0.213,0.429c0.207,0.404,0.422,0.807,0.646,1.208c0.012,0.025,0.024,0.048,0.038,0.072
		c0,0.002,0.002,0.003,0.004,0.004c0.222,0.399,0.454,0.796,0.691,1.192c0.054,0.09,0.109,0.183,0.163,0.272
		c0.24,0.394,0.485,0.785,0.738,1.176c0.031,0.047,0.063,0.095,0.095,0.142c0.234,0.358,0.475,0.713,0.721,1.068
		c0.059,0.084,0.117,0.169,0.176,0.252c0.27,0.385,0.548,0.767,0.833,1.148c0.054,0.071,0.11,0.145,0.165,0.218
		c0.258,0.342,0.523,0.68,0.793,1.021c0.054,0.067,0.106,0.136,0.16,0.204c0.03,0.034,0.057,0.071,0.086,0.107
		c0.289,0.36,0.587,0.716,0.892,1.073c0.07,0.082,0.144,0.165,0.216,0.249c0.266,0.307,0.537,0.615,0.813,0.92
		c0.112,0.126,0.228,0.251,0.344,0.377c0.253,0.276,0.51,0.552,0.773,0.827c0.109,0.115,0.22,0.232,0.332,0.347
		c0.37,0.381,0.745,0.761,1.13,1.138c0.005,0.005,0.011,0.01,0.017,0.016c0.379,0.372,0.77,0.741,1.165,1.109
		c0.123,0.113,0.249,0.228,0.372,0.34c0.292,0.268,0.586,0.533,0.887,0.798c0.135,0.12,0.271,0.239,0.41,0.359
		c0.338,0.295,0.68,0.586,1.029,0.877c0.089,0.076,0.179,0.151,0.269,0.228c0.437,0.362,0.884,0.722,1.337,1.078
		c0.117,0.093,0.236,0.185,0.354,0.274c0.345,0.269,0.696,0.539,1.051,0.805c0.154,0.117,0.311,0.232,0.468,0.349
		c0.348,0.257,0.7,0.514,1.056,0.769c0.14,0.1,0.276,0.198,0.417,0.298c0.492,0.346,0.99,0.689,1.495,1.031
		c0.072,0.048,0.146,0.096,0.218,0.143c0.439,0.294,0.885,0.587,1.337,0.876c0.166,0.108,0.336,0.214,0.503,0.322
		c0.188,0.12,0.375,0.24,0.564,0.358c0.198,0.123,0.399,0.245,0.597,0.365c0.16,0.098,0.319,0.196,0.48,0.294
		c0.542,0.327,1.088,0.651,1.646,0.975c0.585,0.337,1.177,0.671,1.773,0.998c0.2,0.11,0.402,0.216,0.601,0.324
		c0.402,0.218,0.804,0.434,1.209,0.646c0.238,0.125,0.48,0.248,0.72,0.372c0.373,0.191,0.745,0.381,1.121,0.57
		c0.255,0.126,0.515,0.252,0.773,0.38c0.221,0.109,0.44,0.221,0.662,0.327c0.152,0.071,0.303,0.141,0.453,0.213
		c0.245,0.115,0.488,0.229,0.734,0.345c0.386,0.18,0.772,0.358,1.162,0.534c0.242,0.109,0.484,0.219,0.729,0.327
		c0.411,0.184,0.825,0.363,1.24,0.542c0.223,0.095,0.444,0.191,0.666,0.286c0.52,0.22,1.041,0.435,1.564,0.647
		c0.121,0.048,0.241,0.099,0.361,0.148c0.015,0.007,0.031,0.012,0.048,0.019c0.054,0.023,0.111,0.043,0.165,0.064
		c0.819,0.328,1.648,0.646,2.481,0.958c0.242,0.092,0.487,0.183,0.731,0.273c0.792,0.291,1.588,0.578,2.391,0.855
		c0.093,0.032,0.184,0.067,0.277,0.098c0.029,0.009,0.056,0.019,0.083,0.027c0.817,0.28,1.64,0.552,2.467,0.817
		c0.223,0.072,0.449,0.142,0.674,0.212c0.613,0.193,1.229,0.383,1.847,0.566c0.125,0.038,0.25,0.08,0.375,0.117
		c0.182,0.053,0.367,0.103,0.547,0.157c0.486,0.142,0.973,0.281,1.462,0.418c0.32,0.089,0.64,0.179,0.961,0.266
		c0.503,0.137,1.008,0.27,1.512,0.401c0.212,0.056,0.42,0.114,0.633,0.17c0.099,0.023,0.198,0.047,0.295,0.073
		c0.494,0.125,0.987,0.246,1.482,0.366c0.301,0.073,0.603,0.148,0.905,0.219c0.567,0.134,1.137,0.263,1.706,0.391
		c0.206,0.045,0.411,0.095,0.617,0.142c0.028,0.006,0.056,0.01,0.082,0.015c0.724,0.16,1.452,0.312,2.183,0.461
		c0.064,0.013,0.129,0.028,0.194,0.041c0.795,0.16,1.593,0.315,2.394,0.464c0.024,0.003,0.046,0.009,0.069,0.013
		c0.265,0.049,0.53,0.094,0.794,0.142c0.506,0.09,1.011,0.182,1.518,0.269c0.329,0.056,0.658,0.108,0.986,0.161
		c0.47,0.079,0.939,0.156,1.412,0.229c0.059,0.008,0.116,0.019,0.177,0.028c0.287,0.043,0.576,0.084,0.862,0.125
		c0.457,0.068,0.914,0.137,1.372,0.202c0.36,0.05,0.718,0.096,1.078,0.143c0.447,0.06,0.896,0.12,1.346,0.175
		c0.095,0.013,0.191,0.026,0.288,0.038c0.268,0.034,0.539,0.062,0.807,0.094c0.448,0.053,0.896,0.104,1.345,0.154
		c0.37,0.041,0.741,0.079,1.11,0.117c0.446,0.047,0.891,0.09,1.338,0.134c0.134,0.011,0.271,0.028,0.405,0.041
		c0.23,0.021,0.462,0.038,0.693,0.059c0.467,0.041,0.934,0.082,1.401,0.119c0.368,0.03,0.736,0.056,1.104,0.083
		c0.465,0.034,0.931,0.067,1.397,0.098c0.188,0.012,0.375,0.028,0.564,0.04c0.178,0.011,0.355,0.019,0.533,0.03
		c0.488,0.028,0.975,0.054,1.463,0.081c0.361,0.017,0.721,0.035,1.083,0.052c0.495,0.021,0.992,0.04,1.488,0.059
		c0.243,0.009,0.485,0.021,0.729,0.028c0.106,0.003,0.212,0.005,0.316,0.008c0.565,0.017,1.131,0.029,1.696,0.04
		c0.295,0.007,0.592,0.014,0.887,0.019c0.74,0.011,1.482,0.017,2.224,0.017c0.11,0.001,0.22,0.003,0.329,0.003
		c0.008,0,0.019,0,0.027,0c0.897,0,1.793-0.008,2.69-0.02c0.271-0.005,0.544-0.012,0.815-0.019c0.629-0.011,1.258-0.026,1.885-0.046
		c0.134-0.003,0.267-0.006,0.399-0.009c0.181-0.007,0.359-0.018,0.537-0.024c0.666-0.023,1.328-0.053,1.994-0.083
		c0.294-0.014,0.589-0.028,0.883-0.042c0.837-0.045,1.672-0.095,2.507-0.151c0.086-0.006,0.172-0.01,0.257-0.015
		c0.014,0,0.027-0.003,0.04-0.003c1-0.07,1.996-0.15,2.991-0.237c0.273-0.023,0.544-0.048,0.815-0.073
		c0.794-0.073,1.585-0.153,2.377-0.234c0.161-0.017,0.324-0.031,0.486-0.05c0.104-0.011,0.207-0.023,0.313-0.034
		c0.237-0.026,0.477-0.056,0.717-0.082c0.495-0.058,0.99-0.117,1.484-0.178c0.256-0.033,0.513-0.064,0.769-0.097
		c0.505-0.065,1.008-0.134,1.51-0.202c0.226-0.031,0.449-0.062,0.673-0.092c0.714-0.103,1.427-0.207,2.139-0.318
		c0.003-0.002,0.006-0.003,0.009-0.003c0.786-0.123,1.568-0.251,2.349-0.385c0.137-0.023,0.273-0.049,0.408-0.073
		c0.643-0.112,1.286-0.226,1.926-0.346c0.282-0.052,0.562-0.109,0.842-0.163c0.494-0.095,0.987-0.189,1.479-0.29
		c0.313-0.062,0.624-0.131,0.935-0.195c0.458-0.096,0.915-0.19,1.369-0.289c0.014-0.003,0.026-0.006,0.04-0.009
		c0.195-0.044,0.389-0.091,0.584-0.133c0.574-0.128,1.15-0.258,1.722-0.393c0.291-0.069,0.581-0.142,0.873-0.214
		c0.483-0.116,0.969-0.233,1.451-0.356c0.32-0.081,0.637-0.165,0.955-0.249c0.452-0.117,0.901-0.234,1.349-0.357
		c0.334-0.088,0.662-0.182,0.994-0.274c0.431-0.12,0.861-0.24,1.289-0.365c0.338-0.097,0.673-0.198,1.007-0.298
		c0.419-0.124,0.839-0.249,1.255-0.377c0.339-0.105,0.676-0.21,1.012-0.319c0.408-0.128,0.818-0.26,1.226-0.392
		c0.338-0.111,0.673-0.224,1.009-0.337c0.404-0.135,0.805-0.272,1.205-0.41c0.335-0.117,0.668-0.236,1.002-0.354
		c0.397-0.143,0.792-0.286,1.187-0.431c0.33-0.121,0.66-0.244,0.989-0.368c0.393-0.149,0.784-0.3,1.175-0.451
		c0.324-0.127,0.648-0.254,0.972-0.383c0.39-0.157,0.775-0.315,1.161-0.474c0.319-0.131,0.638-0.263,0.956-0.397
		c0.387-0.163,0.77-0.328,1.154-0.496c0.311-0.134,0.62-0.27,0.929-0.407c0.387-0.172,0.771-0.349,1.154-0.526
		c0.299-0.137,0.601-0.274,0.897-0.415c0.391-0.184,0.776-0.371,1.163-0.558c0.285-0.138,0.573-0.276,0.855-0.417
		c0.402-0.199,0.797-0.403,1.194-0.606c0.264-0.134,0.528-0.267,0.79-0.403c0.438-0.229,0.869-0.464,1.301-0.698
		c0.215-0.117,0.433-0.23,0.646-0.348c0.643-0.354,1.279-0.715,1.909-1.081c19.437-11.294,29.164-26.074,29.206-40.877l0.081-28.01
		C208.295,78.302,198.566,93.083,179.131,104.377z"/>
	<linearGradient id="SVGID_2_" gradientUnits="userSpaceOnUse" x1="7.3359" y1="63.2139" x2="208.3369" y2="63.2139">
		<stop  offset="0" style="stop-color:#7827A8"/>
		<stop  offset="0.3253" style="stop-color:#6D32B0"/>
		<stop  offset="0.8997" style="stop-color:#5050C7"/>
		<stop  offset="1" style="stop-color:#4A56CB"/>
	</linearGradient>
	<path fill="url(#SVGID_2_)" d="M178.67,22.05c39.376,22.733,39.581,59.593,0.461,82.327c-39.119,22.733-102.751,22.735-142.128,0
		C-2.374,81.643-2.578,44.785,36.541,22.052C75.661-0.683,139.293-0.684,178.67,22.05z"/>
	<path fill="none" stroke="#27F5FF" stroke-miterlimit="10" d="M165.912,29.463c-15.614-9.015-36.336-13.979-58.342-13.979
		c-22.013,0-42.676,4.966-58.189,13.981c-15.51,9.014-24.016,20.999-23.943,33.749c0.071,12.747,8.709,24.733,24.324,33.748
		c15.615,9.016,36.335,13.98,58.342,13.979c22.011,0,42.674-4.966,58.184-13.979c15.515-9.015,24.021-21.001,23.949-33.75
		C190.165,50.465,181.526,38.479,165.912,29.463z"/>
	<g>
		<linearGradient id="SVGID_3_" gradientUnits="userSpaceOnUse" x1="5.8359" y1="63.2139" x2="209.8369" y2="63.2139">
			<stop  offset="0" style="stop-color:#C42992"/>
			<stop  offset="0.0784" style="stop-color:#B92992"/>
			<stop  offset="0.2172" style="stop-color:#9B2B92"/>
			<stop  offset="0.3991" style="stop-color:#6A2D93"/>
			<stop  offset="0.4822" style="stop-color:#522E93"/>
			<stop  offset="0.6001" style="stop-color:#6055A8"/>
			<stop  offset="0.8621" style="stop-color:#82B6DC"/>
			<stop  offset="1" style="stop-color:#95EBF9"/>
		</linearGradient>
		<path fill="none" stroke="url(#SVGID_3_)" stroke-width="3" stroke-miterlimit="10" d="M178.67,22.05
			c39.376,22.733,39.581,59.593,0.461,82.327c-39.119,22.733-102.751,22.735-142.128,0C-2.374,81.643-2.578,44.785,36.541,22.052
			C75.661-0.683,139.293-0.684,178.67,22.05z"/>
		<linearGradient id="SVGID_4_" gradientUnits="userSpaceOnUse" x1="5.7568" y1="106.9282" x2="209.8379" y2="106.9282">
			<stop  offset="0" style="stop-color:#C4118B"/>
			<stop  offset="0.0784" style="stop-color:#B9148C"/>
			<stop  offset="0.2172" style="stop-color:#9B1B8E"/>
			<stop  offset="0.3991" style="stop-color:#6A2891"/>
			<stop  offset="0.4822" style="stop-color:#522E93"/>
			<stop  offset="0.6037" style="stop-color:#5855A9"/>
			<stop  offset="0.8737" style="stop-color:#67B6DF"/>
			<stop  offset="1" style="stop-color:#6EE5F9"/>
		</linearGradient>
		<path fill="none" stroke="url(#SVGID_4_)" stroke-width="3" stroke-miterlimit="10" d="M179.131,104.377
			c-0.631,0.366-1.269,0.727-1.91,1.081c-0.214,0.118-0.432,0.231-0.645,0.347c-0.433,0.234-0.865,0.468-1.303,0.698
			c-0.263,0.137-0.528,0.27-0.791,0.405c-0.396,0.204-0.792,0.406-1.192,0.605c-0.284,0.14-0.572,0.278-0.859,0.417
			c-0.385,0.187-0.77,0.374-1.158,0.558c-0.3,0.14-0.601,0.277-0.901,0.416c-0.383,0.176-0.766,0.352-1.151,0.525
			c-0.308,0.137-0.62,0.271-0.931,0.407c-0.383,0.167-0.767,0.334-1.154,0.497c-0.316,0.133-0.635,0.265-0.956,0.397
			c-0.384,0.159-0.771,0.317-1.158,0.471c-0.324,0.131-0.65,0.257-0.976,0.385c-0.391,0.152-0.779,0.302-1.171,0.45
			c-0.33,0.124-0.662,0.249-0.993,0.37c-0.393,0.146-0.787,0.289-1.184,0.43c-0.333,0.119-0.667,0.236-1.002,0.353
			c-0.4,0.14-0.802,0.276-1.205,0.412c-0.335,0.113-0.671,0.226-1.009,0.337c-0.407,0.132-0.816,0.263-1.228,0.393
			c-0.335,0.106-0.671,0.214-1.009,0.317c-0.418,0.129-0.837,0.254-1.255,0.38c-0.336,0.099-0.671,0.199-1.009,0.298
			c-0.428,0.123-0.859,0.243-1.29,0.362c-0.33,0.093-0.66,0.188-0.992,0.277c-0.448,0.12-0.897,0.237-1.348,0.355
			c-0.318,0.083-0.638,0.167-0.957,0.249c-0.48,0.122-0.966,0.239-1.451,0.357c-0.29,0.07-0.581,0.143-0.874,0.212
			c-0.57,0.135-1.146,0.264-1.722,0.393c-0.208,0.047-0.414,0.097-0.623,0.14c-0.454,0.102-0.912,0.194-1.367,0.29
			c-0.313,0.065-0.624,0.134-0.937,0.199c-0.491,0.1-0.985,0.193-1.478,0.288c-0.281,0.054-0.561,0.111-0.843,0.163
			c-0.641,0.12-1.283,0.234-1.926,0.347c-0.136,0.024-0.271,0.05-0.407,0.073c-0.78,0.133-1.564,0.262-2.347,0.385
			c-0.716,0.112-1.432,0.218-2.15,0.32c-0.222,0.032-0.445,0.061-0.669,0.094c-0.505,0.07-1.011,0.137-1.516,0.202
			c-0.254,0.034-0.508,0.065-0.765,0.098c-0.496,0.062-0.993,0.121-1.491,0.179c-0.236,0.028-0.474,0.054-0.712,0.08
			c-0.267,0.031-0.534,0.058-0.802,0.085c-0.789,0.084-1.58,0.162-2.371,0.233c-0.273,0.027-0.545,0.053-0.817,0.077
			c-0.995,0.084-1.992,0.166-2.991,0.235c-0.099,0.007-0.199,0.012-0.297,0.018c-0.835,0.056-1.67,0.106-2.506,0.15
			c-0.295,0.016-0.591,0.029-0.885,0.043c-0.664,0.033-1.328,0.059-1.993,0.083c-0.312,0.011-0.625,0.022-0.937,0.033
			c-0.629,0.02-1.256,0.034-1.886,0.046c-0.271,0.004-0.543,0.013-0.815,0.016c-0.896,0.014-1.792,0.024-2.688,0.022
			c-0.125,0-0.248-0.001-0.372-0.001c-0.735-0.003-1.473-0.009-2.209-0.019c-0.296-0.005-0.592-0.014-0.888-0.019
			c-0.565-0.012-1.131-0.023-1.695-0.04c-0.349-0.011-0.696-0.025-1.045-0.037c-0.497-0.017-0.994-0.036-1.489-0.059
			c-0.361-0.016-0.723-0.033-1.083-0.053c-0.486-0.023-0.974-0.05-1.46-0.079c-0.368-0.024-0.736-0.045-1.104-0.07
			c-0.463-0.03-0.928-0.062-1.391-0.097c-0.37-0.026-0.74-0.056-1.109-0.084c-0.466-0.038-0.931-0.078-1.396-0.118
			c-0.368-0.034-0.737-0.066-1.105-0.101c-0.445-0.043-0.89-0.088-1.334-0.135c-0.372-0.037-0.742-0.074-1.112-0.115
			c-0.449-0.05-0.897-0.102-1.343-0.154c-0.367-0.042-0.733-0.086-1.096-0.13c-0.451-0.057-0.898-0.117-1.346-0.177
			c-0.36-0.048-0.719-0.095-1.077-0.145c-0.459-0.064-0.917-0.131-1.373-0.198c-0.347-0.053-0.693-0.102-1.04-0.155
			c-0.47-0.073-0.941-0.152-1.412-0.228c-0.328-0.056-0.657-0.107-0.984-0.163c-0.506-0.086-1.006-0.176-1.509-0.267
			c-0.292-0.053-0.584-0.103-0.874-0.158c-0.8-0.149-1.598-0.302-2.392-0.462c-0.065-0.014-0.13-0.028-0.196-0.042
			c-0.729-0.149-1.457-0.302-2.182-0.46c-0.234-0.051-0.465-0.104-0.699-0.157c-0.57-0.129-1.138-0.257-1.706-0.391
			c-0.303-0.071-0.606-0.147-0.91-0.221c-0.492-0.119-0.984-0.239-1.476-0.365c-0.311-0.079-0.621-0.161-0.932-0.241
			c-0.503-0.132-1.008-0.265-1.509-0.402c-0.321-0.088-0.643-0.176-0.963-0.266c-0.487-0.137-0.975-0.278-1.46-0.418
			c-0.309-0.09-0.616-0.181-0.923-0.272c-0.618-0.186-1.234-0.376-1.846-0.569c-0.225-0.07-0.451-0.138-0.676-0.21
			c-0.827-0.266-1.65-0.537-2.466-0.818c-0.122-0.041-0.24-0.083-0.36-0.125c-0.802-0.277-1.599-0.561-2.389-0.854
			c-0.248-0.09-0.493-0.181-0.737-0.273c-0.833-0.312-1.66-0.629-2.479-0.958c-0.07-0.029-0.142-0.056-0.211-0.083
			c-0.123-0.049-0.244-0.1-0.367-0.149c-0.521-0.213-1.041-0.427-1.559-0.645c-0.223-0.095-0.445-0.192-0.667-0.288
			c-0.415-0.178-0.828-0.358-1.239-0.54c-0.244-0.108-0.489-0.219-0.73-0.329c-0.389-0.175-0.776-0.352-1.16-0.533
			c-0.246-0.114-0.491-0.229-0.735-0.345c-0.374-0.178-0.746-0.359-1.116-0.54c-0.257-0.126-0.516-0.252-0.773-0.38
			c-0.375-0.188-0.749-0.379-1.119-0.571c-0.242-0.123-0.481-0.246-0.722-0.372c-0.405-0.212-0.808-0.429-1.209-0.646
			c-0.2-0.108-0.399-0.214-0.599-0.323c-0.596-0.328-1.189-0.66-1.775-0.999c-0.557-0.321-1.104-0.648-1.646-0.975
			c-0.16-0.097-0.318-0.195-0.478-0.292c-0.391-0.24-0.778-0.482-1.163-0.724c-0.167-0.106-0.336-0.214-0.503-0.32
			c-0.453-0.292-0.9-0.584-1.341-0.879c-0.07-0.047-0.143-0.094-0.214-0.141c-0.506-0.342-1.004-0.686-1.495-1.034
			c-0.141-0.098-0.276-0.197-0.415-0.296c-0.356-0.255-0.71-0.511-1.059-0.769c-0.155-0.116-0.314-0.232-0.468-0.348
			c-0.353-0.267-0.704-0.535-1.05-0.805c-0.117-0.092-0.238-0.184-0.355-0.275c-0.453-0.357-0.898-0.716-1.336-1.079
			c-0.091-0.075-0.178-0.151-0.269-0.227c-0.348-0.291-0.692-0.583-1.03-0.877c-0.136-0.12-0.272-0.239-0.408-0.359
			c-0.299-0.265-0.596-0.531-0.886-0.798c-0.124-0.113-0.25-0.227-0.374-0.341c-0.396-0.369-0.787-0.739-1.169-1.112
			c-0.003-0.004-0.007-0.008-0.012-0.013c-0.385-0.376-0.76-0.756-1.129-1.138c-0.113-0.116-0.223-0.232-0.334-0.348
			c-0.261-0.275-0.52-0.55-0.773-0.827c-0.115-0.125-0.23-0.25-0.343-0.376c-0.276-0.306-0.547-0.613-0.813-0.921
			c-0.072-0.083-0.145-0.166-0.216-0.249c-0.333-0.392-0.659-0.785-0.977-1.181c-0.055-0.067-0.107-0.134-0.159-0.202
			c-0.271-0.339-0.535-0.68-0.794-1.022c-0.056-0.073-0.11-0.145-0.166-0.218c-0.285-0.381-0.563-0.765-0.833-1.148
			c-0.059-0.084-0.116-0.168-0.173-0.251c-0.248-0.355-0.49-0.711-0.724-1.069c-0.031-0.047-0.063-0.094-0.093-0.142
			c-0.254-0.39-0.5-0.783-0.738-1.174c-0.056-0.092-0.111-0.183-0.165-0.274c-0.238-0.398-0.47-0.796-0.695-1.196
			c-0.012-0.025-0.026-0.049-0.038-0.074c-0.223-0.401-0.438-0.803-0.645-1.206c-0.073-0.143-0.142-0.286-0.213-0.43
			c-0.142-0.286-0.284-0.572-0.42-0.86c-0.077-0.167-0.153-0.334-0.229-0.501c-0.12-0.266-0.238-0.532-0.353-0.798
			c-0.075-0.175-0.148-0.351-0.22-0.527c-0.117-0.284-0.231-0.568-0.341-0.853c-0.047-0.12-0.094-0.241-0.138-0.362
			c-0.153-0.414-0.303-0.827-0.44-1.242c-0.003-0.008-0.005-0.016-0.008-0.024c-0.134-0.408-0.26-0.816-0.382-1.225
			c-0.034-0.123-0.069-0.246-0.104-0.369c-0.095-0.334-0.185-0.668-0.271-1.003c-0.018-0.079-0.041-0.158-0.06-0.238
			c-0.1-0.405-0.191-0.812-0.276-1.219c-0.019-0.092-0.036-0.185-0.056-0.277c-0.072-0.356-0.137-0.714-0.196-1.07
			c-0.012-0.072-0.027-0.145-0.039-0.218c-0.065-0.406-0.123-0.812-0.173-1.218c-0.011-0.087-0.021-0.174-0.032-0.261
			c-0.049-0.413-0.092-0.826-0.124-1.24c-0.004-0.035-0.006-0.068-0.008-0.103c-0.029-0.374-0.052-0.748-0.067-1.122
			c-0.006-0.118-0.011-0.237-0.016-0.355c-0.013-0.418-0.023-0.837-0.021-1.256L7.257,90.938c-0.002,0.418,0.008,0.836,0.023,1.254
			c0.004,0.119,0.01,0.237,0.015,0.355c0.006,0.137,0.008,0.273,0.016,0.409c0.015,0.238,0.033,0.474,0.05,0.711
			c0.003,0.035,0.004,0.07,0.008,0.105c0.032,0.414,0.076,0.826,0.125,1.238c0.011,0.088,0.021,0.175,0.031,0.263
			c0.048,0.373,0.098,0.745,0.157,1.117c0.006,0.033,0.012,0.066,0.018,0.1c0.011,0.072,0.025,0.145,0.038,0.217
			c0.06,0.357,0.125,0.714,0.197,1.071c0.018,0.092,0.036,0.185,0.056,0.276c0.084,0.407,0.176,0.814,0.275,1.22
			c0.019,0.079,0.041,0.157,0.061,0.236c0.047,0.187,0.092,0.372,0.143,0.557c0.04,0.15,0.084,0.298,0.126,0.447
			c0.036,0.123,0.069,0.246,0.105,0.37c0.12,0.408,0.246,0.816,0.382,1.223c0.002,0.008,0.005,0.017,0.007,0.024
			c0.138,0.415,0.287,0.829,0.44,1.242c0.045,0.122,0.092,0.243,0.139,0.364c0.058,0.152,0.113,0.304,0.174,0.456
			c0.053,0.133,0.11,0.263,0.165,0.396c0.073,0.177,0.147,0.353,0.222,0.529c0.113,0.266,0.231,0.531,0.353,0.795
			c0.075,0.168,0.15,0.336,0.229,0.503c0.134,0.288,0.276,0.574,0.42,0.86c0.071,0.143,0.14,0.287,0.213,0.429
			c0.207,0.404,0.422,0.807,0.646,1.208c0.012,0.025,0.024,0.048,0.038,0.072c0,0.002,0.002,0.003,0.004,0.004
			c0.222,0.399,0.454,0.796,0.691,1.192c0.054,0.09,0.109,0.183,0.163,0.272c0.24,0.394,0.485,0.785,0.738,1.176
			c0.031,0.047,0.063,0.095,0.095,0.142c0.234,0.358,0.475,0.713,0.721,1.068c0.059,0.084,0.117,0.169,0.176,0.252
			c0.27,0.385,0.548,0.767,0.833,1.148c0.054,0.071,0.11,0.145,0.165,0.218c0.258,0.342,0.523,0.68,0.793,1.021
			c0.054,0.067,0.106,0.136,0.16,0.204c0.03,0.034,0.057,0.071,0.086,0.107c0.289,0.36,0.587,0.716,0.892,1.073
			c0.07,0.082,0.144,0.165,0.216,0.249c0.266,0.307,0.537,0.615,0.813,0.92c0.112,0.126,0.228,0.251,0.344,0.377
			c0.253,0.276,0.51,0.552,0.773,0.827c0.109,0.115,0.22,0.232,0.332,0.347c0.37,0.381,0.745,0.761,1.13,1.138
			c0.005,0.005,0.011,0.01,0.017,0.016c0.379,0.372,0.77,0.741,1.165,1.109c0.123,0.113,0.249,0.228,0.372,0.34
			c0.292,0.268,0.586,0.533,0.887,0.798c0.135,0.12,0.271,0.239,0.41,0.359c0.338,0.295,0.68,0.586,1.029,0.877
			c0.089,0.076,0.179,0.151,0.269,0.228c0.437,0.362,0.884,0.722,1.337,1.078c0.117,0.093,0.236,0.185,0.354,0.274
			c0.345,0.269,0.696,0.539,1.051,0.805c0.154,0.117,0.311,0.232,0.468,0.349c0.348,0.257,0.7,0.514,1.056,0.769
			c0.14,0.1,0.276,0.198,0.417,0.298c0.492,0.346,0.99,0.689,1.495,1.031c0.072,0.048,0.146,0.096,0.218,0.143
			c0.439,0.294,0.885,0.587,1.337,0.876c0.166,0.108,0.336,0.214,0.503,0.322c0.188,0.12,0.375,0.24,0.564,0.358
			c0.198,0.123,0.399,0.245,0.597,0.365c0.16,0.098,0.319,0.196,0.48,0.294c0.542,0.327,1.088,0.651,1.646,0.975
			c0.585,0.337,1.177,0.671,1.773,0.998c0.2,0.11,0.402,0.216,0.601,0.324c0.402,0.218,0.804,0.434,1.209,0.646
			c0.238,0.125,0.48,0.248,0.72,0.372c0.373,0.191,0.745,0.381,1.121,0.57c0.255,0.126,0.515,0.252,0.773,0.38
			c0.221,0.109,0.44,0.221,0.662,0.327c0.152,0.071,0.303,0.141,0.453,0.213c0.245,0.115,0.488,0.229,0.734,0.345
			c0.386,0.18,0.772,0.358,1.162,0.534c0.242,0.109,0.484,0.219,0.729,0.327c0.411,0.184,0.825,0.363,1.24,0.542
			c0.223,0.095,0.444,0.191,0.666,0.286c0.52,0.22,1.041,0.435,1.564,0.647c0.121,0.048,0.241,0.099,0.361,0.148
			c0.015,0.007,0.031,0.012,0.048,0.019c0.054,0.023,0.111,0.043,0.165,0.064c0.819,0.328,1.648,0.646,2.481,0.958
			c0.242,0.092,0.487,0.183,0.731,0.273c0.792,0.291,1.588,0.578,2.391,0.855c0.093,0.032,0.184,0.067,0.277,0.098
			c0.029,0.009,0.056,0.019,0.083,0.027c0.817,0.28,1.64,0.552,2.467,0.817c0.223,0.072,0.449,0.142,0.674,0.212
			c0.613,0.193,1.229,0.383,1.847,0.566c0.125,0.038,0.25,0.08,0.375,0.117c0.182,0.053,0.367,0.103,0.547,0.157
			c0.486,0.142,0.973,0.281,1.462,0.418c0.32,0.089,0.64,0.179,0.961,0.266c0.503,0.137,1.008,0.27,1.512,0.401
			c0.212,0.056,0.42,0.114,0.633,0.17c0.099,0.023,0.198,0.047,0.295,0.073c0.494,0.125,0.987,0.246,1.482,0.366
			c0.301,0.073,0.603,0.148,0.905,0.219c0.567,0.134,1.137,0.263,1.706,0.391c0.206,0.045,0.411,0.095,0.617,0.142
			c0.028,0.006,0.056,0.01,0.082,0.015c0.724,0.16,1.452,0.312,2.183,0.461c0.064,0.013,0.129,0.028,0.194,0.041
			c0.795,0.16,1.593,0.315,2.394,0.464c0.024,0.003,0.046,0.009,0.069,0.013c0.265,0.049,0.53,0.094,0.794,0.142
			c0.506,0.09,1.011,0.182,1.518,0.269c0.329,0.056,0.658,0.108,0.986,0.161c0.47,0.079,0.939,0.156,1.412,0.229
			c0.059,0.008,0.116,0.019,0.177,0.028c0.287,0.043,0.576,0.084,0.862,0.125c0.457,0.068,0.914,0.137,1.372,0.202
			c0.36,0.05,0.718,0.096,1.078,0.143c0.447,0.06,0.896,0.12,1.346,0.175c0.095,0.013,0.191,0.026,0.288,0.038
			c0.268,0.034,0.539,0.062,0.807,0.094c0.448,0.053,0.896,0.104,1.345,0.154c0.37,0.041,0.741,0.079,1.11,0.117
			c0.446,0.047,0.891,0.09,1.338,0.134c0.134,0.011,0.271,0.028,0.405,0.041c0.23,0.021,0.462,0.038,0.693,0.059
			c0.467,0.041,0.934,0.082,1.401,0.119c0.368,0.03,0.736,0.056,1.104,0.083c0.465,0.034,0.931,0.067,1.397,0.098
			c0.188,0.012,0.375,0.028,0.564,0.04c0.178,0.011,0.355,0.019,0.533,0.03c0.488,0.028,0.975,0.054,1.463,0.081
			c0.361,0.017,0.721,0.035,1.083,0.052c0.495,0.021,0.992,0.04,1.488,0.059c0.243,0.009,0.485,0.021,0.729,0.028
			c0.106,0.003,0.212,0.005,0.316,0.008c0.565,0.017,1.131,0.029,1.696,0.04c0.295,0.007,0.592,0.014,0.887,0.019
			c0.74,0.011,1.482,0.017,2.224,0.017c0.11,0.001,0.22,0.003,0.329,0.003c0.008,0,0.019,0,0.027,0c0.897,0,1.793-0.008,2.69-0.02
			c0.271-0.005,0.544-0.012,0.815-0.019c0.629-0.011,1.258-0.026,1.885-0.046c0.134-0.003,0.267-0.006,0.399-0.009
			c0.181-0.007,0.359-0.018,0.537-0.024c0.666-0.023,1.328-0.053,1.994-0.083c0.294-0.014,0.589-0.028,0.883-0.042
			c0.837-0.045,1.672-0.095,2.507-0.151c0.086-0.006,0.172-0.01,0.257-0.015c0.014,0,0.027-0.003,0.04-0.003
			c1-0.07,1.996-0.15,2.991-0.237c0.273-0.023,0.544-0.048,0.815-0.073c0.794-0.073,1.585-0.153,2.377-0.234
			c0.161-0.017,0.324-0.031,0.486-0.05c0.104-0.011,0.207-0.023,0.313-0.034c0.237-0.026,0.477-0.056,0.717-0.082
			c0.495-0.058,0.99-0.117,1.484-0.178c0.256-0.033,0.513-0.064,0.769-0.097c0.505-0.065,1.008-0.134,1.51-0.202
			c0.226-0.031,0.449-0.062,0.673-0.092c0.714-0.103,1.427-0.207,2.139-0.318c0.003-0.002,0.006-0.003,0.009-0.003
			c0.786-0.123,1.568-0.251,2.349-0.385c0.137-0.023,0.273-0.049,0.408-0.073c0.643-0.112,1.286-0.226,1.926-0.346
			c0.282-0.052,0.562-0.109,0.842-0.163c0.494-0.095,0.987-0.189,1.479-0.29c0.313-0.062,0.624-0.131,0.935-0.195
			c0.458-0.096,0.915-0.19,1.369-0.289c0.014-0.003,0.026-0.006,0.04-0.009c0.195-0.044,0.389-0.091,0.584-0.133
			c0.574-0.128,1.15-0.258,1.722-0.393c0.291-0.069,0.581-0.142,0.873-0.214c0.483-0.116,0.969-0.233,1.451-0.356
			c0.32-0.081,0.637-0.165,0.955-0.249c0.452-0.117,0.901-0.234,1.349-0.357c0.334-0.088,0.662-0.182,0.994-0.274
			c0.431-0.12,0.861-0.24,1.289-0.365c0.338-0.097,0.673-0.198,1.007-0.298c0.419-0.124,0.839-0.249,1.255-0.377
			c0.339-0.105,0.676-0.21,1.012-0.319c0.408-0.128,0.818-0.26,1.226-0.392c0.338-0.111,0.673-0.224,1.009-0.337
			c0.404-0.135,0.805-0.272,1.205-0.41c0.335-0.117,0.668-0.236,1.002-0.354c0.397-0.143,0.792-0.286,1.187-0.431
			c0.33-0.121,0.66-0.244,0.989-0.368c0.393-0.149,0.784-0.3,1.175-0.451c0.324-0.127,0.648-0.254,0.972-0.383
			c0.39-0.157,0.775-0.315,1.161-0.474c0.319-0.131,0.638-0.263,0.956-0.397c0.387-0.163,0.77-0.328,1.154-0.496
			c0.311-0.134,0.62-0.27,0.929-0.407c0.387-0.172,0.771-0.349,1.154-0.526c0.299-0.137,0.601-0.274,0.897-0.415
			c0.391-0.184,0.776-0.371,1.163-0.558c0.285-0.138,0.573-0.276,0.855-0.417c0.402-0.199,0.797-0.403,1.194-0.606
			c0.264-0.134,0.528-0.267,0.79-0.403c0.438-0.229,0.869-0.464,1.301-0.698c0.215-0.117,0.433-0.23,0.646-0.348
			c0.643-0.354,1.279-0.715,1.909-1.081c19.437-11.294,29.164-26.074,29.206-40.877l0.081-28.01
			C208.295,78.302,198.566,93.083,179.131,104.377z"/>
	</g>
	<g>
		<g>
			<path fill="#443E9F" d="M149.443,47.88l12.995-7.553l-8.784-5.073l-13.098,7.611c-13.97-6.457-29.201-7.091-39.816-0.922
				c-13.192,7.668-6.08,16.027,0.93,23.521L81.826,76.995c-5.597-4.382-9.416-10.494-9.947-17.123l-15.213,2.939
				c0.539,7.092,5.258,14.643,14.052,20.639l-13.891,8.072l8.786,5.073l13.989-8.13c14.169,6.457,29.998,7.208,41.011,0.808
				c13.692-7.841,6.275-16.489-0.835-24.156l18.356-10.666c3.8,3.113,7.407,7.38,9.524,12.396l15.209-3.17
				C161.049,58.373,156.338,52.665,149.443,47.88z M106.938,82.067c-4.167,2.422-9.941,2.307-16.226-0.057l17.065-9.917
				C110.686,75.957,111.602,79.358,106.938,82.067z M113.972,58.315c-2.71-3.632-3.324-6.86,1.041-9.397
				c3.769-2.19,9.047-1.901,14.532,0.347L113.972,58.315z"/>
			<polygon fill="#443E9F" points="162.438,35.704 162.438,40.327 156.535,39.135 			"/>
			<polygon fill="#443E9F" points="56.828,86.9 56.828,91.523 61.035,89.212 			"/>
			<polygon fill="#443E9F" points="162.868,59.054 162.868,63.677 159.487,59.759 			"/>
		</g>
		<linearGradient id="SVGID_5_" gradientUnits="userSpaceOnUse" x1="56.6665" y1="61.3022" x2="162.8682" y2="61.3022">
			<stop  offset="0" style="stop-color:#6DE1F7"/>
			<stop  offset="0.2381" style="stop-color:#78E6F7"/>
			<stop  offset="0.6583" style="stop-color:#96F3F8"/>
			<stop  offset="1" style="stop-color:#B3FFF8"/>
		</linearGradient>
		<path fill="url(#SVGID_5_)" d="M149.443,43.257l12.995-7.553l-8.784-5.073l-13.098,7.611c-13.97-6.457-29.201-7.091-39.816-0.922
			c-13.192,7.668-6.08,16.027,0.93,23.521L81.826,72.373c-5.597-4.382-9.416-10.494-9.947-17.123l-15.213,2.939
			c0.539,7.092,5.258,14.643,14.052,20.639L56.828,86.9l8.786,5.073l13.989-8.13c14.169,6.457,29.998,7.207,41.011,0.808
			c13.692-7.841,6.275-16.489-0.835-24.156l18.356-10.667c3.8,3.113,7.407,7.38,9.524,12.396l15.209-3.17
			C161.049,53.75,156.338,48.042,149.443,43.257z M106.938,77.444c-4.167,2.422-9.941,2.306-16.226-0.058l17.065-9.917
			C110.686,71.334,111.602,74.735,106.938,77.444z M113.972,53.692c-2.71-3.632-3.324-6.86,1.041-9.397
			c3.769-2.19,9.047-1.901,14.532,0.347L113.972,53.692z"/>
	</g>
</g>
</svg>
