<?xml version="1.0" encoding="utf-8"?>
<!-- Generator: Adobe Illustrator 16.0.0, SVG Export Plug-In . SVG Version: 6.00 Build 0)  -->
<!DOCTYPE svg PUBLIC "-//W3C//DTD SVG 1.1//EN" "http://www.w3.org/Graphics/SVG/1.1/DTD/svg11.dtd">
<svg version="1.1" id="Capa_1" xmlns="http://www.w3.org/2000/svg" xmlns:xlink="http://www.w3.org/1999/xlink" x="0px" y="0px"
	 width="200px" height="200px" viewBox="0 0 200 200" enable-background="new 0 0 200 200" xml:space="preserve">
<linearGradient id="SVGID_1_" gradientUnits="userSpaceOnUse" x1="129.6943" y1="136.3359" x2="143.6504" y2="136.3359">
	<stop  offset="0" style="stop-color:#611F87"/>
	<stop  offset="0.3765" style="stop-color:#562A90"/>
	<stop  offset="1" style="stop-color:#3C46A6"/>
</linearGradient>
<path fill="url(#SVGID_1_)" d="M138.111,146.107c-2.305,0-4.457-1.451-5.24-3.756l-2.881-8.468c-0.984-2.896,0.565-6.04,3.46-7.024
	c2.894-0.983,6.04,0.564,7.024,3.46l2.879,8.468c0.985,2.895-0.563,6.039-3.459,7.023
	C139.304,146.012,138.703,146.107,138.111,146.107z"/>
<linearGradient id="SVGID_2_" gradientUnits="userSpaceOnUse" x1="22.5645" y1="146.082" x2="103.3945" y2="146.082">
	<stop  offset="0" style="stop-color:#7827A8"/>
	<stop  offset="0.3253" style="stop-color:#6D32B0"/>
	<stop  offset="0.8997" style="stop-color:#5050C7"/>
	<stop  offset="1" style="stop-color:#4A56CB"/>
</linearGradient>
<path fill="url(#SVGID_2_)" d="M103.395,148.294c-24.48,8.259-52.653,17.762-77.719,11.552c-4.29-1.063-4.084-7.193,0.253-8.039
	c17.068-3.329,29.385-12.114,34.936-21.488L103.395,148.294z"/>
<g>
	<linearGradient id="SVGID_3_" gradientUnits="userSpaceOnUse" x1="74.481" y1="160.4746" x2="92.6655" y2="160.4746">
		<stop  offset="0" style="stop-color:#7827A8"/>
		<stop  offset="0.3253" style="stop-color:#6D32B0"/>
		<stop  offset="0.8997" style="stop-color:#5050C7"/>
		<stop  offset="1" style="stop-color:#4A56CB"/>
	</linearGradient>
	<path fill="url(#SVGID_3_)" d="M84.05,181.456c-0.219,0-0.439-0.008-0.662-0.025c-4.69-0.36-8.2-4.455-7.839-9.146
		c0.327-4.256-0.023-18.452-0.634-21.596c-1.402-4.221,0.694-8.862,4.872-10.564c4.357-1.774,9.327,0.318,11.102,4.674
		c2.296,5.637,1.75,27.43,1.645,28.793C92.189,178.06,88.457,181.456,84.05,181.456z M75.108,151.217
		c0.001,0.003,0.003,0.006,0.004,0.01C75.111,151.223,75.11,151.22,75.108,151.217z"/>
	<linearGradient id="SVGID_4_" gradientUnits="userSpaceOnUse" x1="105.3711" y1="160.4746" x2="123.5557" y2="160.4746">
		<stop  offset="0" style="stop-color:#7827A8"/>
		<stop  offset="0.3253" style="stop-color:#6D32B0"/>
		<stop  offset="0.8997" style="stop-color:#5050C7"/>
		<stop  offset="1" style="stop-color:#4A56CB"/>
	</linearGradient>
	<path fill="url(#SVGID_4_)" d="M114.94,181.456c-0.22,0-0.44-0.008-0.662-0.025c-4.69-0.36-8.2-4.455-7.839-9.146
		c0.327-4.256-0.024-18.452-0.635-21.596c-1.402-4.22,0.694-8.861,4.872-10.564c4.356-1.775,9.327,0.317,11.103,4.674
		c2.297,5.637,1.75,27.43,1.645,28.793C123.08,178.06,119.348,181.456,114.94,181.456z M105.999,151.217
		c0.001,0.003,0.003,0.006,0.004,0.01C106.002,151.223,106,151.22,105.999,151.217z"/>
</g>
<path opacity="0.1" enable-background="new    " d="M123.555,165.698c-0.007-7.24-0.318-17.323-1.776-20.9
	c-1.774-4.356-6.745-6.449-11.102-4.674c-4.179,1.702-6.274,6.345-4.872,10.565c0.489,2.521,0.812,12.145,0.752,18.055
	C113.132,168.313,118.767,167.308,123.555,165.698z"/>
<path opacity="0.1" enable-background="new    " d="M79.786,140.125c-4.178,1.702-6.273,6.344-4.872,10.564
	c0.427,2.197,0.727,9.79,0.757,15.617c4.832,1.398,10.465,2.236,16.978,2.546c0.079-7.078-0.075-19.918-1.761-24.055
	C89.113,140.442,84.144,138.35,79.786,140.125z"/>
<path opacity="0.1" enable-background="new    " d="M60.865,130.318c-2.038,3.44-4.991,6.801-8.752,9.843
	c0.961,5.821,2.952,11.383,7.042,16.169c1.095,1.281,2.307,2.459,3.636,3.539c13.896-2.568,27.759-7.241,40.604-11.574
	L60.865,130.318z"/>
<linearGradient id="SVGID_5_" gradientUnits="userSpaceOnUse" x1="59.7549" y1="125.3369" x2="137.5293" y2="125.3369">
	<stop  offset="0" style="stop-color:#7827A8"/>
	<stop  offset="0.3253" style="stop-color:#6D32B0"/>
	<stop  offset="0.8997" style="stop-color:#5050C7"/>
	<stop  offset="1" style="stop-color:#4A56CB"/>
</linearGradient>
<path fill="url(#SVGID_5_)" d="M137.529,126.203c0,19.884-2.701,34.272-38.887,34.272s-38.887-14.389-38.887-34.272
	c0-19.885,17.41-36.005,38.887-36.005S137.529,106.318,137.529,126.203z"/>
<linearGradient id="SVGID_6_" gradientUnits="userSpaceOnUse" x1="93.4819" y1="142.5117" x2="137.5293" y2="142.5117">
	<stop  offset="0" style="stop-color:#6DE1F7"/>
	<stop  offset="0.2381" style="stop-color:#78E6F7"/>
	<stop  offset="0.6583" style="stop-color:#96F3F8"/>
	<stop  offset="1" style="stop-color:#B3FFF8"/>
</linearGradient>
<path fill="url(#SVGID_6_)" d="M137.529,126.203c0-0.159-0.004-0.316-0.007-0.475c-8.1-2.078-24.165-2.683-35.345,9.198
	c-8.147,8.658-9.326,18.001-8.452,25.452c1.566,0.064,3.204,0.097,4.917,0.097C134.828,160.476,137.529,146.087,137.529,126.203z"/>
<linearGradient id="SVGID_7_" gradientUnits="userSpaceOnUse" x1="59.7554" y1="125.5449" x2="91.2603" y2="125.5449">
	<stop  offset="0" style="stop-color:#611F87"/>
	<stop  offset="0.3765" style="stop-color:#562A90"/>
	<stop  offset="1" style="stop-color:#3C46A6"/>
</linearGradient>
<path fill="url(#SVGID_7_)" d="M91.26,90.849c-17.946,3.194-31.505,17.806-31.505,35.353c0,18.412,2.32,32.11,31.391,34.038
	C75.005,143.857,78.127,110.03,91.26,90.849z"/>
<linearGradient id="SVGID_8_" gradientUnits="userSpaceOnUse" x1="51.5278" y1="67.1631" x2="189.7783" y2="67.1631">
	<stop  offset="0" style="stop-color:#7827A8"/>
	<stop  offset="0.3253" style="stop-color:#6D32B0"/>
	<stop  offset="0.8997" style="stop-color:#5050C7"/>
	<stop  offset="1" style="stop-color:#4A56CB"/>
</linearGradient>
<path fill="url(#SVGID_8_)" d="M134.337,38.345L134.337,38.345c-6.641-10.042-17.876-16.082-29.915-16.082H89.623
	c-21.04,0-38.095,17.056-38.095,38.095v17.515c0,18.883,15.307,34.19,34.19,34.19h78.448c14.145,0,25.612-11.467,25.612-25.612
	v-11.92c0-14.145-11.468-25.612-25.612-25.612h-10.163C146.089,48.918,138.702,44.947,134.337,38.345z"/>
<g opacity="0.1">
	<circle cx="72.223" cy="86.199" r="2.622"/>
	<circle cx="90.859" cy="90.199" r="2.622"/>
	<circle cx="80.195" cy="99.141" r="2.622"/>
</g>
<g>
	<circle fill="#FFFFFF" cx="150.742" cy="62.297" r="2.622"/>
	<circle fill="#FFFFFF" cx="167.449" cy="62.297" r="2.622"/>
</g>
<linearGradient id="SVGID_9_" gradientUnits="userSpaceOnUse" x1="51.5283" y1="67.6367" x2="106.4648" y2="67.6367">
	<stop  offset="0" style="stop-color:#611F87"/>
	<stop  offset="0.3765" style="stop-color:#562A90"/>
	<stop  offset="1" style="stop-color:#3C46A6"/>
</linearGradient>
<path fill="url(#SVGID_9_)" d="M81.16,23.208c-16.966,3.849-29.632,19.02-29.632,37.15v17.515c0,18.883,15.307,34.19,34.19,34.19
	h20.747C76.25,94.483,71.129,46.159,81.16,23.208z"/>
<linearGradient id="SVGID_10_" gradientUnits="userSpaceOnUse" x1="89.3667" y1="136.3359" x2="100.4395" y2="136.3359">
	<stop  offset="0" style="stop-color:#611F87"/>
	<stop  offset="0.3765" style="stop-color:#562A90"/>
	<stop  offset="1" style="stop-color:#3C46A6"/>
</linearGradient>
<path fill="url(#SVGID_10_)" d="M94.903,146.344c-3.058,0-5.537-2.479-5.537-5.536v-8.944c0-3.058,2.479-5.536,5.537-5.536
	c3.057,0,5.536,2.479,5.536,5.536v8.944C100.439,143.865,97.96,146.344,94.903,146.344z"/>
<g>
	<linearGradient id="SVGID_11_" gradientUnits="userSpaceOnUse" x1="0" y1="52.2803" x2="87.4453" y2="52.2803">
		<stop  offset="0" style="stop-color:#6DE1F7"/>
		<stop  offset="0.2381" style="stop-color:#78E6F7"/>
		<stop  offset="0.6583" style="stop-color:#96F3F8"/>
		<stop  offset="1" style="stop-color:#B3FFF8"/>
	</linearGradient>
	<path fill="url(#SVGID_11_)" d="M26.432,75.372C25.18,81.448,19.8,86.017,13.353,86.017C5.979,86.017,0,80.038,0,72.664
		C0,15.178,84.591,0.646,87.445,42.856c-0.877-0.373-1.841-0.58-2.854-0.58c-0.949,0-1.854,0.187-2.686,0.517
		C62.823,23.208,33.956,32.546,26.432,75.372z"/>
	<linearGradient id="SVGID_12_" gradientUnits="userSpaceOnUse" x1="109.334" y1="51.4775" x2="196.7783" y2="51.4775">
		<stop  offset="0" style="stop-color:#6DE1F7"/>
		<stop  offset="0.2381" style="stop-color:#78E6F7"/>
		<stop  offset="0.6583" style="stop-color:#96F3F8"/>
		<stop  offset="1" style="stop-color:#B3FFF8"/>
	</linearGradient>
	<path fill="url(#SVGID_12_)" d="M109.334,42.856c0.877-0.373,1.841-0.58,2.854-0.58c0.949,0,1.854,0.187,2.686,0.517
		c14.178-14.551,33.757-13.129,45.971,6.125h3.321c14.146,0,25.612,11.467,25.612,25.612v9.881c4.17-2.259,7.001-6.672,7.001-11.748
		C196.779,15.178,112.188,0.646,109.334,42.856z"/>
</g>
<g>
	<path fill="#FFFFFF" d="M107.025,39.346c0.75,0,1.5,0.286,2.072,0.859c0.825,0.825,1.923,1.28,3.09,1.28s2.265-0.455,3.09-1.28
		c1.144-1.144,2.999-1.145,4.143-0.001c1.145,1.144,1.146,2.999,0.001,4.144c-1.932,1.933-4.501,2.997-7.233,2.997
		c-2.733,0-5.303-1.064-7.234-2.997c-1.144-1.145-1.143-3,0.002-4.143C105.526,39.632,106.276,39.346,107.025,39.346z"/>
	<path fill="#FFFFFF" d="M79.429,39.346c0.75,0,1.5,0.286,2.072,0.859c0.825,0.825,1.922,1.28,3.09,1.28
		c1.167,0,2.264-0.455,3.089-1.28c1.145-1.144,2.999-1.145,4.144-0.001c1.145,1.144,1.145,2.999,0.001,4.143
		c-1.932,1.933-4.501,2.998-7.233,2.998c-2.733,0-5.302-1.064-7.234-2.998c-1.144-1.145-1.143-3,0.002-4.143
		C77.93,39.632,78.679,39.346,79.429,39.346z"/>
</g>
<g>
	<linearGradient id="SVGID_13_" gradientUnits="userSpaceOnUse" x1="179.5566" y1="125.3369" x2="200" y2="125.3369">
		<stop  offset="0" style="stop-color:#6DE1F7"/>
		<stop  offset="0.2381" style="stop-color:#78E6F7"/>
		<stop  offset="0.6583" style="stop-color:#96F3F8"/>
		<stop  offset="1" style="stop-color:#B3FFF8"/>
	</linearGradient>
	<path fill="url(#SVGID_13_)" d="M179.557,129.524c0,5.646,4.576,10.222,10.222,10.222c5.645,0,10.222-4.576,10.222-10.222
		c0-11.874-8.81-19.413-13.173-18.526C181.612,112.058,179.557,120.788,179.557,129.524z"/>
	<linearGradient id="SVGID_14_" gradientUnits="userSpaceOnUse" x1="2.4829" y1="110.7471" x2="23.0903" y2="110.7471">
		<stop  offset="0" style="stop-color:#6DE1F7"/>
		<stop  offset="0.2381" style="stop-color:#78E6F7"/>
		<stop  offset="0.6583" style="stop-color:#96F3F8"/>
		<stop  offset="1" style="stop-color:#B3FFF8"/>
	</linearGradient>
	<path fill="url(#SVGID_14_)" d="M22.964,113.424c0.879,5.576-2.928,10.811-8.504,11.69s-10.811-2.928-11.69-8.504
		c-1.851-11.729,5.677-20.549,10.125-20.354C18.211,96.491,21.603,104.795,22.964,113.424z"/>
</g>
</svg>
