<?xml version="1.0" encoding="utf-8"?>
<!-- Generator: Adobe Illustrator 16.0.0, SVG Export Plug-In . SVG Version: 6.00 Build 0)  -->
<!DOCTYPE svg PUBLIC "-//W3C//DTD SVG 1.1//EN" "http://www.w3.org/Graphics/SVG/1.1/DTD/svg11.dtd">
<svg version="1.1" id="Layer_1" xmlns="http://www.w3.org/2000/svg" xmlns:xlink="http://www.w3.org/1999/xlink" x="0px" y="0px"
	 width="160px" height="64px" viewBox="0 0 160 64" enable-background="new 0 0 160 64" xml:space="preserve">
<g>
	<g>
		<path fill="#D3009C" d="M48,32c0-11.842,6.438-22.174,16-27.708C59.292,1.567,53.831,0,48,0C30.327,0,16,14.327,16,32
			s14.327,32,32,32c5.831,0,11.292-1.567,16-4.292C54.438,54.175,48,43.842,48,32z"/>
		<path fill="#24126A" d="M80,32c0,11.842-6.438,22.175-16,27.708C68.708,62.433,74.169,64,80,64s11.292-1.567,16-4.292
			C86.438,54.175,80,43.842,80,32z"/>
		<path fill="#24126A" d="M80,32c0-11.842-6.438-22.174-16-27.708C54.438,9.826,48,20.158,48,32c0,11.842,6.438,22.175,16,27.708
			C73.562,54.175,80,43.842,80,32z"/>
		<path fill="#D3009C" d="M16,32c0,11.842-6.438,22.175-16,27.708C4.708,62.433,10.169,64,16,64s11.292-1.567,16-4.292
			C22.438,54.175,16,43.842,16,32z"/>
		<path fill="#D3009C" d="M16,64h32L35.5,48c0,0-10.833,6.501-11.333,7.167S16,64,16,64z"/>
	</g>
	<path fill="#6EE8FD" d="M144,32c0-11.842,6.438-22.174,16-27.708C155.292,1.567,149.83,0,144,0s-11.292,1.567-16,4.292
		C137.563,9.826,144,20.158,144,32z"/>
	<path fill="#6EE8FD" d="M112,0c-5.831,0-11.292,1.567-16,4.292c9.562,5.534,16,15.866,16,27.708c0,11.842-6.438,22.175-16,27.708
		C100.708,62.433,106.169,64,112,64c17.673,0,32-14.327,32-32S129.673,0,112,0z"/>
	<path fill="#6EE8FD" d="M144,0h-31.999L124.5,16c0,0,10.834-6.501,11.334-7.167S144,0,144,0z"/>
	<g>
		<path fill="#24126A" d="M80.001,32c0-11.842,6.438-22.174,16-27.708C91.293,1.567,85.831,0,80,0C62.327,0,48,14.327,48,32
			c0,17.674,14.327,32,32,32c5.831,0,11.293-1.567,16.001-4.292C86.438,54.175,80.001,43.843,80.001,32z"/>
		<path fill="#6EE8FD" d="M112,32c0-11.842-6.438-22.174-15.999-27.708c-9.563,5.534-16,15.866-16,27.708
			c0,11.843,6.438,22.175,16,27.708C105.563,54.175,112,43.843,112,32z"/>
	</g>
</g>
</svg>
