<?xml version="1.0" encoding="utf-8"?>
<!-- Generator: Adobe Illustrator 16.0.0, SVG Export Plug-In . SVG Version: 6.00 Build 0)  -->
<!DOCTYPE svg PUBLIC "-//W3C//DTD SVG 1.1//EN" "http://www.w3.org/Graphics/SVG/1.1/DTD/svg11.dtd">
<svg version="1.1" id="Layer_1" xmlns="http://www.w3.org/2000/svg" xmlns:xlink="http://www.w3.org/1999/xlink" x="0px" y="0px"
	 width="160px" height="64px" viewBox="0 0 160 64" enable-background="new 0 0 160 64" xml:space="preserve">
<path fill="#24126A" d="M80,32c0,11.842-6.438,22.175-16,27.708C68.708,62.434,74.169,64,80,64s11.292-1.566,16-4.292
	C86.438,54.175,80,43.842,80,32z"/>
<path fill="#24126A" d="M80,32c0-11.842-6.438-22.174-16-27.708C54.438,9.826,48,20.158,48,32s6.438,22.175,16,27.708
	C73.562,54.175,80,43.842,80,32z"/>
<path fill="#D3009C" d="M48,32c0-11.842,6.438-22.174,16-27.708C59.292,1.567,53.831,0,48,0C30.327,0,16,14.327,16,32
	c0,11.842-6.438,22.175-16,27.708C4.708,62.434,10.169,64,16,64h32c5.831,0,11.292-1.566,16-4.292C54.438,54.175,48,43.842,48,32z"
	/>
<path fill="#24126A" d="M80.001,32c0-11.842,6.438-22.174,16-27.708C91.293,1.567,85.831,0,80,0C62.327,0,48,14.327,48,32
	c0,17.674,14.327,32,32,32c5.831,0,11.293-1.566,16.001-4.292C86.438,54.175,80.001,43.843,80.001,32z"/>
<path fill="#6EE8FD" d="M144,0h-31.999l0,0H112c-5.831,0-11.292,1.567-16,4.292c0,0,0,0,0,0C86.438,9.827,80.001,20.158,80.001,32
	c0,11.843,6.438,22.175,15.999,27.708l0,0C100.708,62.434,106.169,64,112,64c17.673,0,32-14.327,32-32
	c0-11.842,6.438-22.174,16-27.708C155.292,1.567,149.83,0,144,0z"/>
</svg>
