<?xml version="1.0" encoding="utf-8"?>
<!-- Generator: Adobe Illustrator 16.0.0, SVG Export Plug-In . SVG Version: 6.00 Build 0)  -->
<!DOCTYPE svg PUBLIC "-//W3C//DTD SVG 1.1//EN" "http://www.w3.org/Graphics/SVG/1.1/DTD/svg11.dtd">
<svg version="1.1" id="Layer_1" xmlns="http://www.w3.org/2000/svg" xmlns:xlink="http://www.w3.org/1999/xlink" x="0px" y="0px"
	 width="484px" height="447px" viewBox="0 0 484 447" enable-background="new 0 0 484 447" xml:space="preserve">
<g>
	<g>
		<g>
			<g>
				<circle opacity="0.9" fill="#42E8E0" cx="332.829" cy="216.489" r="7.795"/>
				<circle opacity="0.3" fill="#42E8E0" cx="438.086" cy="265.705" r="4.817"/>
				<path opacity="0.2" fill="#42E8E0" d="M406.587,324.588c-0.334-2.691,1.576-5.145,4.27-5.479
					c2.689-0.338,5.145,1.572,5.479,4.265c0.338,2.691-1.575,5.147-4.266,5.481C409.378,329.189,406.925,327.281,406.587,324.588z"
					/>
				<circle opacity="0.2" fill="#42E8E0" cx="270.733" cy="359.548" r="3.104"/>
				<circle opacity="0.2" fill="#42E8E0" cx="284.088" cy="374.219" r="6.508"/>
				<circle opacity="0.2" fill="#42E8E0" cx="425.93" cy="332.075" r="3.149"/>
				<path opacity="0.3" fill="#42E8E0" d="M407.762,180.752c-0.327-2.64,1.545-5.046,4.184-5.376
					c2.641-0.329,5.049,1.544,5.379,4.184c0.327,2.64-1.545,5.047-4.186,5.376C410.5,185.266,408.092,183.392,407.762,180.752z"/>
				<circle opacity="0.2" fill="#42E8E0" cx="385.918" cy="238.432" r="4.911"/>
				<circle opacity="0.2" fill="#42E8E0" cx="400.385" cy="246.526" r="3.15"/>
			</g>
			<g>
				<circle opacity="0.9" fill="#42E8E0" cx="353.646" cy="293.927" r="6.923"/>
				<circle opacity="0.3" fill="#42E8E0" cx="292.419" cy="376.979" r="4.277"/>
				<path opacity="0.2" fill="#42E8E0" d="M341.97,409.551c-0.88-2.245-3.409-3.35-5.652-2.469c-2.24,0.882-3.346,3.412-2.466,5.654
					c0.881,2.24,3.412,3.347,5.656,2.467C341.748,414.323,342.853,411.791,341.97,409.551z"/>
				<circle opacity="0.2" fill="#42E8E0" cx="462.783" cy="379.178" r="2.758"/>
				<circle opacity="0.2" fill="#42E8E0" cx="458.59" cy="396.291" r="5.779"/>
				<path opacity="0.2" fill="#42E8E0" d="M332.664,422.573c-0.564-1.438-2.188-2.147-3.625-1.583
					c-1.438,0.565-2.146,2.188-1.581,3.629c0.564,1.436,2.188,2.145,3.625,1.58C332.521,425.634,333.228,424.012,332.664,422.573z"
					/>
				<circle opacity="0.2" fill="#42E8E0" cx="272.728" cy="196.959" r="3.105"/>
				<circle opacity="0.2" fill="#42E8E0" cx="270.178" cy="216.635" r="6.507"/>
				<circle opacity="0.3" fill="#42E8E0" cx="273.464" cy="224.771" r="4.277"/>
				<path opacity="0.2" fill="#42E8E0" d="M280.682,283.63c1.138-2.124,0.344-4.768-1.779-5.908
					c-2.121-1.138-4.763-0.345-5.906,1.777c-1.139,2.124-0.344,4.769,1.779,5.906C276.896,286.546,279.538,285.752,280.682,283.63z"
					/>
				<circle opacity="0.2" fill="#42E8E0" cx="262.264" cy="283.633" r="2.797"/>
				<g opacity="0.9">
					<path fill="#42E8E0" d="M359.388,133.526c-1.397-3.558-5.414-5.31-8.972-3.914c-3.559,1.398-5.311,5.415-3.915,8.973
						c1.399,3.558,5.416,5.311,8.974,3.913C359.033,141.102,360.783,137.084,359.388,133.526z"/>
					<circle fill="#42E8E0" cx="339.595" cy="174.954" r="4.895"/>
				</g>
			</g>
		</g>
	</g>
	<g>
		<g>
			<circle opacity="0.9" fill="#42E8E0" cx="103.293" cy="237.839" r="7.795"/>
			<circle opacity="0.3" fill="#42E8E0" cx="77.496" cy="124.542" r="4.817"/>
			<circle opacity="0.2" fill="#42E8E0" cx="139.839" cy="109.767" r="4.911"/>
			<circle opacity="0.2" fill="#42E8E0" cx="254.333" cy="198.992" r="3.105"/>
			<circle opacity="0.2" fill="#42E8E0" cx="257.711" cy="179.441" r="6.509"/>
			<circle opacity="0.2" fill="#42E8E0" cx="137.343" cy="93.379" r="3.149"/>
			<circle opacity="0.3" fill="#42E8E0" cx="25.667" cy="197.24" r="4.817"/>
			<circle opacity="0.2" fill="#42E8E0" cx="88.01" cy="182.464" r="4.911"/>
			<circle opacity="0.2" fill="#42E8E0" cx="85.514" cy="166.075" r="3.15"/>
		</g>
		<g>
			<circle opacity="0.9" fill="#42E8E0" cx="151.626" cy="173.854" r="6.921"/>
			<circle opacity="0.3" fill="#42E8E0" cx="254.773" cy="171.172" r="4.277"/>
			<circle opacity="0.2" fill="#42E8E0" cx="253.797" cy="114.287" r="4.361"/>
			<circle opacity="0.2" fill="#42E8E0" cx="151.886" cy="35.366" r="2.757"/>
			<circle opacity="0.2" fill="#42E8E0" cx="167.966" cy="28.166" r="5.78"/>
			<circle opacity="0.2" fill="#42E8E0" cx="268.445" cy="112.836" r="2.797"/>
			<circle opacity="0.2" fill="#42E8E0" cx="124.79" cy="297.263" r="3.106"/>
			<circle opacity="0.2" fill="#42E8E0" cx="141.884" cy="287.195" r="6.508"/>
			<circle opacity="0.3" fill="#42E8E0" cx="146.289" cy="279.605" r="4.278"/>
			<circle opacity="0.2" fill="#42E8E0" cx="189.039" cy="242.063" r="4.362"/>
			<circle opacity="0.2" fill="#42E8E0" cx="199.62" cy="252.296" r="2.797"/>
			<g opacity="0.9">
				<circle fill="#42E8E0" cx="27.461" cy="271.358" r="6.922"/>
				<circle fill="#42E8E0" cx="66.359" cy="258.006" r="4.894"/>
			</g>
		</g>
	</g>
</g>
</svg>
