<?xml version="1.0" encoding="utf-8"?>
<!-- Generator: Adobe Illustrator 16.0.0, SVG Export Plug-In . SVG Version: 6.00 Build 0)  -->
<!DOCTYPE svg PUBLIC "-//W3C//DTD SVG 1.1//EN" "http://www.w3.org/Graphics/SVG/1.1/DTD/svg11.dtd">
<svg version="1.1" id="Layer_1" xmlns="http://www.w3.org/2000/svg" xmlns:xlink="http://www.w3.org/1999/xlink" x="0px" y="0px"
	 width="800px" height="536.379px" viewBox="0 0 800 536.379" enable-background="new 0 0 800 536.379" xml:space="preserve">
<g>
	
		<radialGradient id="SVGID_1_" cx="-3419.333" cy="-28.0654" r="234.3165" gradientTransform="matrix(0.8539 0.5204 -0.8776 0.4793 3296.7554 2106.793)" gradientUnits="userSpaceOnUse">
		<stop  offset="0" style="stop-color:#42E8E0"/>
		<stop  offset="0.3313" style="stop-color:#3797B4;stop-opacity:0.6687"/>
		<stop  offset="0.6539" style="stop-color:#2D508C;stop-opacity:0.3461"/>
		<stop  offset="0.884" style="stop-color:#262373;stop-opacity:0.116"/>
		<stop  offset="1" style="stop-color:#24126A;stop-opacity:0"/>
	</radialGradient>
	<path fill="url(#SVGID_1_)" d="M670.117,477.548C517.716,560.781,273.96,554.999,125.67,464.63
		c-148.289-90.37-144.953-231.102,7.448-314.337c152.401-83.235,396.158-77.449,544.446,12.919
		C825.854,253.579,822.518,394.314,670.117,477.548z"/>
	<g>
		<g>
			<linearGradient id="SVGID_2_" gradientUnits="userSpaceOnUse" x1="170.7129" y1="259.0781" x2="646.207" y2="259.0781">
				<stop  offset="0" style="stop-color:#7827A8"/>
				<stop  offset="0.3253" style="stop-color:#6D32B0"/>
				<stop  offset="0.8997" style="stop-color:#5050C7"/>
				<stop  offset="1" style="stop-color:#4A56CB"/>
			</linearGradient>
			<path fill="url(#SVGID_2_)" d="M635.451,194.682l-116.56-67.297c-14.271-8.239-37.343-8.242-51.521,0l-286.073,166.25
				c-14.181,8.239-14.102,21.6,0.17,29.838l116.561,67.298c14.272,8.242,37.337,8.242,51.519,0L635.62,224.524
				C649.803,216.284,649.726,202.923,635.451,194.682z"/>
			<path fill="#27F5FF" d="M590.837,181.73c1.167-0.678,3.069-0.678,4.245,0c1.177,0.683,1.183,1.779,0.014,2.461
				c-1.169,0.678-3.07,0.678-4.249,0C589.674,183.513,589.665,182.413,590.837,181.73z"/>
			<path fill="#27F5FF" d="M546.804,156.313c0.803-0.469,2.115-0.469,2.921-0.003l35.689,20.604c0.81,0.469,0.812,1.228,0.01,1.691
				c-0.805,0.47-2.113,0.47-2.923,0l-35.688-20.602C546.007,157.537,546.001,156.776,546.804,156.313z"/>
			<linearGradient id="SVGID_3_" gradientUnits="userSpaceOnUse" x1="170.6719" y1="310.5791" x2="646.208" y2="310.5791">
				<stop  offset="0" style="stop-color:#611F87"/>
				<stop  offset="0.3765" style="stop-color:#562A90"/>
				<stop  offset="1" style="stop-color:#3C46A6"/>
			</linearGradient>
			<path fill="url(#SVGID_3_)" d="M635.62,224.524L349.547,390.771c-14.182,8.242-37.247,8.242-51.519,0l-116.561-67.298
				c-7.185-4.146-10.771-9.588-10.756-15.024l-0.04,14.498c-0.018,5.436,3.572,10.88,10.752,15.029l116.562,67.296
				c14.275,8.238,37.34,8.238,51.519,0.003l286.077-166.25c7.041-4.095,10.568-9.453,10.582-14.815l0.044-14.503
				C646.19,215.074,642.665,220.432,635.62,224.524z"/>
			<linearGradient id="SVGID_4_" gradientUnits="userSpaceOnUse" x1="223.6836" y1="374.7354" x2="413.7747" y2="255.7525">
				<stop  offset="0" style="stop-color:#C4118B"/>
				<stop  offset="0.0784" style="stop-color:#B9148C"/>
				<stop  offset="0.2172" style="stop-color:#9B1B8E"/>
				<stop  offset="0.3991" style="stop-color:#6A2891"/>
				<stop  offset="0.4822" style="stop-color:#522E93"/>
				<stop  offset="0.6037" style="stop-color:#5855A9"/>
				<stop  offset="0.8737" style="stop-color:#67B6DF"/>
				<stop  offset="1" style="stop-color:#6EE5F9"/>
			</linearGradient>
			<path fill="url(#SVGID_4_)" d="M627.444,199.334c9.822,5.671,9.874,14.863,0.115,20.537L341.483,386.118
				c-9.755,5.671-25.627,5.671-35.45,0l-116.558-67.294c-9.82-5.671-9.874-14.867-0.117-20.535l286.076-166.25
				c9.755-5.67,25.628-5.67,35.45,0l12.527,7.232c2.319,1.337,2.33,3.51,0.028,4.845c-4.482,2.608-4.457,6.83,0.054,9.436
				l66.772,38.55c4.512,2.605,11.799,2.605,16.281,0c2.304-1.338,6.052-1.338,8.369,0L627.444,199.334z"/>
			<linearGradient id="SVGID_5_" gradientUnits="userSpaceOnUse" x1="468.3623" y1="113.0693" x2="359.3455" y2="378.7979">
				<stop  offset="0" style="stop-color:#1B2268"/>
				<stop  offset="0.3055" style="stop-color:#1A2164"/>
				<stop  offset="0.5922" style="stop-color:#171D59"/>
				<stop  offset="0.8706" style="stop-color:#121646"/>
				<stop  offset="0.9949" style="stop-color:#0F123B"/>
			</linearGradient>
			<path fill="url(#SVGID_5_)" d="M323.784,386.964c-6.109,0-11.805-1.346-16.048-3.796l-116.558-67.298
				c-3.617-2.087-5.694-4.768-5.696-7.356c-0.004-2.561,2.032-5.216,5.588-7.283l286.076-166.247
				c4.205-2.444,9.885-3.793,15.988-3.793c6.108,0,11.806,1.352,16.048,3.798l11.67,6.74c-2.664,1.838-4.169,4.378-4.163,7.094
				c0.003,3.009,1.864,5.81,5.102,7.679l66.773,38.55c2.692,1.553,6.19,2.41,9.856,2.41c3.665,0,7.16-0.857,9.839-2.413
				c0.586-0.342,1.509-0.543,2.47-0.543c0.962,0,1.893,0.204,2.485,0.546l12.526,7.232c3.617,2.087,5.694,4.769,5.698,7.36
				c0.002,2.559-2.034,5.215-5.591,7.28l-286.075,166.25C335.626,385.583,329.797,386.964,323.784,386.964z"/>
			<linearGradient id="SVGID_6_" gradientUnits="userSpaceOnUse" x1="315.1489" y1="205.5698" x2="315.1489" y2="90.7226">
				<stop  offset="0" style="stop-color:#6EE8FD;stop-opacity:0"/>
				<stop  offset="1" style="stop-color:#6EE8FD"/>
			</linearGradient>
			<path fill="url(#SVGID_6_)" d="M315.149,202.472L315.149,202.472c-1.544,0-2.8-1.25-2.8-2.797V93.456c0-1.544,1.256-2.8,2.8-2.8
				l0,0c1.547,0,2.8,1.256,2.8,2.8v106.218C317.949,201.221,316.696,202.472,315.149,202.472z"/>
			<linearGradient id="SVGID_7_" gradientUnits="userSpaceOnUse" x1="327.2104" y1="261.7686" x2="327.2104" y2="162.0421">
				<stop  offset="0" style="stop-color:#6EE8FD;stop-opacity:0"/>
				<stop  offset="1" style="stop-color:#6EE8FD"/>
			</linearGradient>
			<path fill="url(#SVGID_7_)" d="M327.212,259.078L327.212,259.078c-0.597,0-1.079-0.481-1.079-1.075v-94.941
				c0-0.594,0.482-1.078,1.079-1.078l0,0c0.593,0,1.075,0.483,1.075,1.078v94.941C328.287,258.597,327.806,259.078,327.212,259.078z
				"/>
			<linearGradient id="SVGID_8_" gradientUnits="userSpaceOnUse" x1="327.2104" y1="146.9927" x2="327.2104" y2="131.2009">
				<stop  offset="0" style="stop-color:#6EE8FD;stop-opacity:0"/>
				<stop  offset="1" style="stop-color:#6EE8FD"/>
			</linearGradient>
			<path fill="url(#SVGID_8_)" d="M327.322,146.566h-0.223c-0.532,0-0.965-0.436-0.965-0.967v-13.44
				c0-0.532,0.434-0.967,0.965-0.967h0.223c0.532,0,0.965,0.436,0.965,0.967v13.44C328.287,146.131,327.854,146.566,327.322,146.566
				z"/>
			<linearGradient id="SVGID_9_" gradientUnits="userSpaceOnUse" x1="364.8091" y1="268.4165" x2="364.8091" y2="125.8498">
				<stop  offset="0" style="stop-color:#6EE8FD;stop-opacity:0"/>
				<stop  offset="1" style="stop-color:#6EE8FD"/>
			</linearGradient>
			<path fill="url(#SVGID_9_)" d="M364.809,264.57L364.809,264.57c-1.972,0-3.569-1.596-3.569-3.566V129.336
				c0-1.971,1.597-3.569,3.569-3.569l0,0c1.972,0,3.569,1.598,3.569,3.569v131.668C368.378,262.975,366.781,264.57,364.809,264.57z"
				/>
			<linearGradient id="SVGID_10_" gradientUnits="userSpaceOnUse" x1="396.9307" y1="284.4341" x2="396.9307" y2="167.5271">
				<stop  offset="0" style="stop-color:#6EE8FD;stop-opacity:0"/>
				<stop  offset="1" style="stop-color:#6EE8FD"/>
			</linearGradient>
			<path fill="url(#SVGID_10_)" d="M396.93,281.28L396.93,281.28c-2.587,0-4.687-2.099-4.687-4.689V172.146
				c0-2.588,2.1-4.687,4.687-4.687l0,0c2.591,0,4.687,2.099,4.687,4.687v104.445C401.617,279.182,399.521,281.28,396.93,281.28z"/>
			<linearGradient id="SVGID_11_" gradientUnits="userSpaceOnUse" x1="430.3105" y1="244.6421" x2="430.3105" y2="138.94">
				<stop  offset="0" style="stop-color:#6EE8FD;stop-opacity:0"/>
				<stop  offset="1" style="stop-color:#6EE8FD"/>
			</linearGradient>
			<path fill="url(#SVGID_11_)" d="M430.311,241.791L430.311,241.791c-1.445,0-2.617-1.174-2.617-2.619v-97.674
				c0-1.448,1.172-2.62,2.617-2.62l0,0c1.446,0,2.616,1.172,2.616,2.62v97.674C432.927,240.617,431.757,241.791,430.311,241.791z"/>
			<linearGradient id="SVGID_12_" gradientUnits="userSpaceOnUse" x1="498.3877" y1="245.9038" x2="498.3877" y2="93.4371">
				<stop  offset="0" style="stop-color:#6EE8FD;stop-opacity:0"/>
				<stop  offset="1" style="stop-color:#6EE8FD"/>
			</linearGradient>
			<path fill="url(#SVGID_12_)" d="M498.387,241.791L498.387,241.791c2.013,0,3.648-1.634,3.648-3.648V96.997
				c0-2.017-1.636-3.648-3.648-3.648l0,0c-2.015,0-3.646,1.632-3.646,3.648v141.146C494.74,240.156,496.372,241.791,498.387,241.791
				z"/>
			<linearGradient id="SVGID_13_" gradientUnits="userSpaceOnUse" x1="464.25" y1="252.7627" x2="464.25" y2="127.4573">
				<stop  offset="0" style="stop-color:#6EE8FD;stop-opacity:0"/>
				<stop  offset="1" style="stop-color:#6EE8FD"/>
			</linearGradient>
			<path fill="url(#SVGID_13_)" d="M464.251,249.382L464.251,249.382c1.722,0,3.12-1.397,3.12-3.12V130.507
				c0-1.725-1.398-3.123-3.12-3.123l0,0c-1.726,0-3.122,1.397-3.122,3.123v115.755C461.129,247.985,462.525,249.382,464.251,249.382
				z"/>
			<linearGradient id="SVGID_14_" gradientUnits="userSpaceOnUse" x1="446.2197" y1="134.5127" x2="446.2197" y2="120.6387">
				<stop  offset="0" style="stop-color:#6EE8FD;stop-opacity:0"/>
				<stop  offset="1" style="stop-color:#6EE8FD"/>
			</linearGradient>
			<path fill="url(#SVGID_14_)" d="M446.22,134.138L446.22,134.138c-1.131,0-2.051-0.916-2.051-2.047v-9.413
				c0-1.131,0.92-2.048,2.051-2.048l0,0c1.132,0,2.051,0.917,2.051,2.048v9.413C448.271,133.222,447.352,134.138,446.22,134.138z"/>
			<linearGradient id="SVGID_15_" gradientUnits="userSpaceOnUse" x1="385.8789" y1="153.3193" x2="385.8789" y2="138.8866">
				<stop  offset="0" style="stop-color:#6EE8FD;stop-opacity:0"/>
				<stop  offset="1" style="stop-color:#6EE8FD"/>
			</linearGradient>
			<path fill="url(#SVGID_15_)" d="M385.878,152.93L385.878,152.93c-1.132,0-2.048-0.916-2.048-2.047v-9.957
				c0-1.131,0.916-2.048,2.048-2.048l0,0c1.13,0,2.05,0.917,2.05,2.048v9.957C387.928,152.014,387.008,152.93,385.878,152.93z"/>
			<linearGradient id="SVGID_16_" gradientUnits="userSpaceOnUse" x1="481.9688" y1="174.7397" x2="481.9688" y2="160.5688">
				<stop  offset="0" style="stop-color:#6EE8FD;stop-opacity:0"/>
				<stop  offset="1" style="stop-color:#6EE8FD"/>
			</linearGradient>
			<path fill="url(#SVGID_16_)" d="M481.971,174.357L481.971,174.357c-1.384,0-2.507-1.123-2.507-2.505v-8.785
				c0-1.384,1.123-2.507,2.507-2.507l0,0c1.383,0,2.502,1.123,2.502,2.507v8.785C484.473,173.235,483.354,174.357,481.971,174.357z"
				/>
			<linearGradient id="SVGID_17_" gradientUnits="userSpaceOnUse" x1="345.1187" y1="187.8159" x2="345.1187" y2="170.5747">
				<stop  offset="0" style="stop-color:#6EE8FD;stop-opacity:0"/>
				<stop  offset="1" style="stop-color:#6EE8FD"/>
			</linearGradient>
			<path fill="url(#SVGID_17_)" d="M345.118,187.351L345.118,187.351c-1.255,0-2.276-1.018-2.276-2.277v-12.232
				c0-1.255,1.021-2.277,2.276-2.277l0,0c1.259,0,2.277,1.021,2.277,2.277v12.232C347.395,186.333,346.377,187.351,345.118,187.351z
				"/>
			<g>
				<linearGradient id="SVGID_18_" gradientUnits="userSpaceOnUse" x1="307.4614" y1="110.5195" x2="508.543" y2="110.5195">
					<stop  offset="0" style="stop-color:#611F87"/>
					<stop  offset="0.3765" style="stop-color:#562A90"/>
					<stop  offset="1" style="stop-color:#3C46A6"/>
				</linearGradient>
				<path fill="url(#SVGID_18_)" d="M479.336,108.715c-0.631,0.366-1.269,0.727-1.91,1.081c-0.214,0.118-0.432,0.231-0.645,0.347
					c-0.433,0.234-0.865,0.468-1.303,0.698c-0.263,0.137-0.528,0.27-0.791,0.405c-0.396,0.204-0.792,0.406-1.192,0.605
					c-0.284,0.14-0.572,0.278-0.859,0.417c-0.385,0.187-0.77,0.374-1.158,0.558c-0.3,0.14-0.601,0.277-0.901,0.416
					c-0.383,0.176-0.766,0.352-1.151,0.525c-0.308,0.137-0.62,0.271-0.931,0.407c-0.383,0.167-0.767,0.334-1.154,0.497
					c-0.316,0.133-0.635,0.265-0.956,0.397c-0.384,0.159-0.771,0.317-1.158,0.471c-0.324,0.131-0.65,0.257-0.976,0.385
					c-0.391,0.152-0.779,0.302-1.171,0.45c-0.33,0.124-0.662,0.249-0.993,0.37c-0.393,0.146-0.787,0.289-1.184,0.43
					c-0.333,0.119-0.667,0.236-1.002,0.353c-0.4,0.14-0.802,0.276-1.205,0.412c-0.335,0.113-0.671,0.226-1.009,0.337
					c-0.407,0.132-0.816,0.263-1.228,0.393c-0.335,0.106-0.671,0.214-1.009,0.317c-0.418,0.129-0.837,0.254-1.255,0.38
					c-0.336,0.099-0.671,0.199-1.009,0.298c-0.428,0.123-0.859,0.243-1.29,0.362c-0.33,0.093-0.66,0.188-0.992,0.277
					c-0.448,0.12-0.897,0.237-1.348,0.355c-0.318,0.083-0.638,0.167-0.957,0.249c-0.48,0.122-0.966,0.239-1.451,0.357
					c-0.29,0.07-0.581,0.143-0.874,0.212c-0.57,0.135-1.146,0.264-1.722,0.393c-0.208,0.047-0.414,0.097-0.623,0.14
					c-0.454,0.102-0.912,0.194-1.367,0.29c-0.313,0.065-0.624,0.134-0.937,0.199c-0.491,0.1-0.985,0.193-1.478,0.288
					c-0.281,0.054-0.561,0.111-0.843,0.163c-0.641,0.12-1.283,0.234-1.926,0.347c-0.136,0.024-0.271,0.05-0.407,0.073
					c-0.78,0.133-1.564,0.262-2.347,0.385c-0.716,0.112-1.432,0.218-2.15,0.32c-0.222,0.032-0.445,0.061-0.669,0.094
					c-0.505,0.07-1.011,0.137-1.516,0.202c-0.254,0.034-0.508,0.065-0.765,0.098c-0.496,0.062-0.993,0.121-1.491,0.179
					c-0.236,0.028-0.474,0.054-0.712,0.08c-0.267,0.031-0.534,0.058-0.802,0.085c-0.789,0.084-1.58,0.162-2.371,0.233
					c-0.273,0.027-0.545,0.053-0.817,0.077c-0.995,0.084-1.992,0.166-2.991,0.235c-0.099,0.007-0.199,0.012-0.297,0.018
					c-0.835,0.056-1.67,0.106-2.506,0.15c-0.295,0.016-0.591,0.029-0.885,0.043c-0.664,0.033-1.328,0.059-1.993,0.083
					c-0.312,0.011-0.625,0.022-0.937,0.033c-0.629,0.02-1.256,0.034-1.886,0.046c-0.271,0.004-0.543,0.013-0.815,0.016
					c-0.896,0.014-1.792,0.024-2.688,0.022c-0.125,0-0.248-0.001-0.372-0.001c-0.735-0.003-1.473-0.009-2.209-0.019
					c-0.296-0.005-0.592-0.014-0.888-0.019c-0.565-0.012-1.131-0.023-1.695-0.04c-0.349-0.011-0.696-0.025-1.045-0.037
					c-0.497-0.017-0.994-0.036-1.489-0.059c-0.362-0.016-0.723-0.033-1.083-0.053c-0.486-0.023-0.973-0.05-1.459-0.079
					c-0.369-0.024-0.737-0.045-1.104-0.07c-0.463-0.03-0.928-0.062-1.391-0.097c-0.37-0.026-0.74-0.056-1.109-0.084
					c-0.466-0.038-0.931-0.078-1.396-0.118c-0.368-0.034-0.737-0.066-1.105-0.101c-0.445-0.043-0.89-0.088-1.334-0.135
					c-0.372-0.037-0.742-0.074-1.112-0.115c-0.449-0.05-0.897-0.102-1.343-0.154c-0.367-0.042-0.733-0.086-1.096-0.13
					c-0.451-0.057-0.898-0.117-1.346-0.177c-0.36-0.048-0.719-0.095-1.077-0.145c-0.459-0.064-0.917-0.131-1.373-0.198
					c-0.347-0.053-0.693-0.102-1.04-0.155c-0.47-0.073-0.941-0.152-1.412-0.228c-0.328-0.056-0.657-0.107-0.984-0.163
					c-0.506-0.086-1.006-0.176-1.509-0.267c-0.292-0.053-0.584-0.103-0.874-0.158c-0.8-0.149-1.598-0.302-2.392-0.462
					c-0.065-0.014-0.13-0.028-0.196-0.042c-0.729-0.149-1.457-0.302-2.182-0.46c-0.234-0.051-0.465-0.104-0.699-0.157
					c-0.57-0.129-1.138-0.257-1.706-0.391c-0.303-0.071-0.606-0.147-0.91-0.221c-0.492-0.119-0.984-0.239-1.476-0.365
					c-0.311-0.079-0.621-0.161-0.932-0.241c-0.503-0.132-1.008-0.265-1.509-0.402c-0.321-0.088-0.643-0.176-0.963-0.266
					c-0.487-0.137-0.975-0.278-1.46-0.418c-0.309-0.09-0.616-0.181-0.923-0.272c-0.618-0.186-1.234-0.376-1.846-0.569
					c-0.225-0.07-0.451-0.138-0.676-0.21c-0.827-0.266-1.65-0.537-2.466-0.818c-0.122-0.041-0.24-0.083-0.36-0.125
					c-0.802-0.277-1.599-0.561-2.389-0.854c-0.248-0.09-0.493-0.181-0.737-0.273c-0.833-0.312-1.66-0.629-2.479-0.958
					c-0.07-0.029-0.142-0.056-0.211-0.083c-0.123-0.049-0.244-0.1-0.367-0.149c-0.521-0.213-1.041-0.427-1.559-0.645
					c-0.223-0.095-0.445-0.192-0.667-0.288c-0.415-0.178-0.828-0.358-1.239-0.54c-0.244-0.108-0.489-0.219-0.73-0.329
					c-0.389-0.175-0.776-0.352-1.16-0.533c-0.246-0.114-0.491-0.229-0.735-0.345c-0.374-0.178-0.746-0.359-1.116-0.54
					c-0.257-0.126-0.516-0.252-0.773-0.38c-0.375-0.188-0.749-0.379-1.119-0.571c-0.242-0.123-0.481-0.246-0.722-0.372
					c-0.405-0.212-0.808-0.429-1.209-0.646c-0.2-0.108-0.399-0.214-0.599-0.323c-0.596-0.328-1.189-0.66-1.775-0.999
					c-0.557-0.321-1.104-0.648-1.646-0.975c-0.16-0.097-0.318-0.195-0.478-0.292c-0.391-0.24-0.778-0.482-1.163-0.724
					c-0.167-0.106-0.336-0.214-0.503-0.32c-0.453-0.292-0.9-0.584-1.341-0.879c-0.07-0.047-0.143-0.094-0.214-0.141
					c-0.506-0.342-1.004-0.686-1.495-1.034c-0.141-0.098-0.276-0.197-0.415-0.296c-0.356-0.255-0.71-0.511-1.059-0.769
					c-0.155-0.116-0.314-0.232-0.468-0.348c-0.353-0.267-0.704-0.535-1.05-0.805c-0.117-0.092-0.238-0.184-0.355-0.275
					c-0.453-0.357-0.898-0.716-1.336-1.079c-0.091-0.075-0.178-0.151-0.269-0.227c-0.348-0.291-0.692-0.583-1.03-0.877
					c-0.136-0.12-0.272-0.239-0.408-0.359c-0.299-0.265-0.596-0.531-0.886-0.798c-0.124-0.113-0.25-0.227-0.374-0.341
					c-0.396-0.369-0.787-0.739-1.169-1.112c-0.003-0.004-0.007-0.008-0.012-0.013c-0.385-0.376-0.76-0.756-1.129-1.138
					c-0.113-0.116-0.223-0.232-0.334-0.348c-0.261-0.275-0.52-0.55-0.773-0.827c-0.115-0.125-0.23-0.25-0.343-0.376
					c-0.276-0.306-0.547-0.613-0.813-0.921c-0.072-0.083-0.145-0.166-0.216-0.249c-0.333-0.392-0.659-0.785-0.977-1.181
					c-0.055-0.067-0.107-0.134-0.159-0.202c-0.271-0.339-0.535-0.68-0.794-1.022c-0.056-0.073-0.11-0.145-0.166-0.218
					c-0.285-0.381-0.563-0.765-0.833-1.148c-0.059-0.084-0.116-0.168-0.173-0.251c-0.248-0.355-0.49-0.711-0.724-1.069
					c-0.031-0.047-0.063-0.094-0.093-0.142c-0.254-0.39-0.5-0.783-0.738-1.174c-0.056-0.092-0.111-0.183-0.165-0.274
					c-0.238-0.398-0.47-0.796-0.695-1.196c-0.012-0.025-0.026-0.049-0.038-0.074c-0.223-0.401-0.438-0.803-0.645-1.206
					c-0.073-0.143-0.142-0.286-0.213-0.43c-0.142-0.286-0.284-0.572-0.42-0.86c-0.077-0.167-0.153-0.334-0.229-0.501
					c-0.12-0.266-0.238-0.532-0.353-0.798c-0.075-0.175-0.148-0.351-0.22-0.527c-0.117-0.284-0.231-0.568-0.341-0.853
					c-0.047-0.12-0.094-0.241-0.138-0.362c-0.153-0.414-0.303-0.827-0.44-1.242c-0.003-0.008-0.005-0.016-0.008-0.024
					c-0.134-0.408-0.26-0.816-0.382-1.225c-0.034-0.123-0.069-0.246-0.104-0.369c-0.095-0.334-0.185-0.668-0.271-1.003
					c-0.018-0.079-0.041-0.158-0.06-0.238c-0.1-0.405-0.191-0.812-0.276-1.219c-0.019-0.092-0.036-0.185-0.056-0.277
					c-0.072-0.356-0.137-0.714-0.196-1.07c-0.012-0.072-0.027-0.145-0.039-0.218c-0.065-0.406-0.123-0.812-0.173-1.218
					c-0.011-0.087-0.021-0.174-0.032-0.261c-0.049-0.413-0.092-0.826-0.124-1.24c-0.004-0.035-0.006-0.068-0.008-0.103
					c-0.029-0.374-0.052-0.748-0.067-1.122c-0.006-0.118-0.011-0.237-0.016-0.355c-0.013-0.418-0.023-0.837-0.021-1.256
					l-0.081,28.011c-0.002,0.418,0.008,0.836,0.023,1.254c0.004,0.119,0.01,0.237,0.015,0.355c0.006,0.137,0.008,0.273,0.016,0.409
					c0.015,0.238,0.033,0.474,0.05,0.711c0.003,0.035,0.004,0.07,0.008,0.105c0.032,0.414,0.076,0.826,0.125,1.238
					c0.011,0.088,0.021,0.175,0.031,0.263c0.048,0.373,0.098,0.745,0.157,1.117c0.006,0.033,0.012,0.066,0.018,0.1
					c0.011,0.072,0.025,0.145,0.038,0.217c0.06,0.357,0.125,0.714,0.197,1.071c0.018,0.092,0.036,0.185,0.056,0.276
					c0.084,0.407,0.176,0.814,0.275,1.22c0.019,0.079,0.041,0.157,0.061,0.236c0.047,0.187,0.092,0.372,0.143,0.557
					c0.04,0.15,0.084,0.298,0.126,0.447c0.036,0.123,0.069,0.246,0.105,0.37c0.12,0.408,0.246,0.816,0.382,1.223
					c0.002,0.008,0.005,0.017,0.007,0.024c0.138,0.415,0.287,0.829,0.44,1.242c0.045,0.122,0.092,0.243,0.139,0.364
					c0.058,0.152,0.113,0.304,0.174,0.456c0.053,0.133,0.11,0.263,0.165,0.396c0.073,0.177,0.147,0.353,0.222,0.529
					c0.113,0.266,0.231,0.531,0.353,0.795c0.075,0.168,0.15,0.336,0.229,0.503c0.134,0.288,0.276,0.574,0.42,0.86
					c0.071,0.143,0.14,0.287,0.213,0.429c0.207,0.404,0.422,0.807,0.646,1.208c0.012,0.025,0.024,0.048,0.038,0.072
					c0,0.002,0.002,0.003,0.004,0.004c0.222,0.399,0.454,0.796,0.691,1.192c0.054,0.09,0.109,0.183,0.163,0.272
					c0.24,0.394,0.485,0.785,0.738,1.176c0.031,0.047,0.063,0.095,0.095,0.142c0.234,0.358,0.475,0.713,0.721,1.068
					c0.059,0.084,0.117,0.169,0.176,0.252c0.27,0.385,0.548,0.767,0.833,1.148c0.054,0.071,0.11,0.145,0.165,0.218
					c0.258,0.342,0.523,0.68,0.793,1.021c0.054,0.067,0.106,0.136,0.16,0.204c0.03,0.034,0.057,0.071,0.086,0.107
					c0.289,0.36,0.587,0.716,0.892,1.073c0.07,0.082,0.144,0.165,0.216,0.249c0.266,0.307,0.537,0.615,0.813,0.92
					c0.112,0.126,0.228,0.251,0.344,0.377c0.253,0.276,0.51,0.552,0.773,0.827c0.109,0.115,0.22,0.232,0.332,0.347
					c0.37,0.381,0.745,0.761,1.13,1.138c0.005,0.005,0.011,0.01,0.017,0.016c0.379,0.372,0.77,0.741,1.165,1.109
					c0.123,0.113,0.249,0.228,0.372,0.34c0.292,0.268,0.586,0.533,0.887,0.798c0.135,0.12,0.271,0.239,0.41,0.359
					c0.338,0.295,0.68,0.586,1.029,0.877c0.089,0.076,0.179,0.151,0.269,0.228c0.437,0.362,0.884,0.722,1.337,1.078
					c0.117,0.093,0.236,0.185,0.354,0.274c0.345,0.269,0.696,0.539,1.051,0.805c0.154,0.117,0.311,0.232,0.468,0.349
					c0.348,0.257,0.7,0.514,1.056,0.769c0.14,0.1,0.276,0.198,0.417,0.298c0.492,0.346,0.99,0.689,1.495,1.031
					c0.072,0.048,0.146,0.096,0.218,0.143c0.439,0.294,0.885,0.587,1.337,0.876c0.166,0.108,0.336,0.214,0.503,0.322
					c0.188,0.12,0.375,0.24,0.564,0.358c0.198,0.123,0.399,0.245,0.597,0.365c0.16,0.098,0.319,0.196,0.48,0.294
					c0.542,0.327,1.088,0.651,1.646,0.975c0.585,0.337,1.177,0.671,1.773,0.998c0.2,0.11,0.402,0.216,0.601,0.324
					c0.402,0.218,0.804,0.434,1.209,0.646c0.238,0.125,0.48,0.248,0.72,0.372c0.373,0.191,0.745,0.381,1.121,0.57
					c0.255,0.126,0.515,0.252,0.773,0.38c0.221,0.109,0.44,0.221,0.662,0.327c0.152,0.071,0.303,0.141,0.453,0.213
					c0.245,0.115,0.488,0.229,0.734,0.345c0.386,0.18,0.772,0.358,1.162,0.534c0.242,0.109,0.484,0.219,0.729,0.327
					c0.411,0.184,0.825,0.363,1.24,0.542c0.223,0.095,0.444,0.191,0.666,0.286c0.52,0.22,1.041,0.435,1.564,0.647
					c0.121,0.048,0.241,0.099,0.361,0.148c0.015,0.007,0.031,0.012,0.048,0.019c0.054,0.023,0.111,0.043,0.165,0.064
					c0.819,0.328,1.648,0.646,2.481,0.958c0.242,0.092,0.487,0.183,0.731,0.273c0.792,0.291,1.588,0.578,2.391,0.855
					c0.093,0.032,0.184,0.067,0.277,0.098c0.029,0.009,0.056,0.019,0.083,0.027c0.817,0.28,1.64,0.552,2.467,0.817
					c0.223,0.072,0.449,0.142,0.674,0.212c0.613,0.193,1.229,0.383,1.847,0.566c0.125,0.038,0.25,0.08,0.375,0.117
					c0.182,0.053,0.367,0.103,0.547,0.157c0.486,0.142,0.973,0.281,1.462,0.418c0.32,0.089,0.64,0.179,0.961,0.266
					c0.503,0.137,1.008,0.27,1.512,0.401c0.212,0.056,0.42,0.114,0.633,0.17c0.099,0.023,0.198,0.047,0.295,0.073
					c0.494,0.125,0.987,0.246,1.482,0.366c0.301,0.073,0.603,0.148,0.905,0.219c0.567,0.134,1.137,0.263,1.706,0.391
					c0.206,0.045,0.411,0.095,0.617,0.142c0.028,0.006,0.056,0.01,0.082,0.015c0.724,0.16,1.452,0.312,2.183,0.461
					c0.064,0.013,0.129,0.028,0.194,0.041c0.795,0.16,1.593,0.315,2.394,0.464c0.024,0.003,0.046,0.009,0.069,0.013
					c0.265,0.049,0.53,0.094,0.794,0.142c0.506,0.09,1.011,0.182,1.518,0.269c0.329,0.056,0.658,0.108,0.986,0.161
					c0.47,0.079,0.939,0.156,1.412,0.229c0.059,0.008,0.116,0.019,0.177,0.028c0.287,0.043,0.576,0.084,0.862,0.125
					c0.457,0.068,0.914,0.137,1.372,0.202c0.36,0.05,0.718,0.096,1.078,0.143c0.447,0.06,0.896,0.12,1.346,0.175
					c0.095,0.013,0.191,0.026,0.288,0.038c0.268,0.034,0.539,0.062,0.807,0.094c0.448,0.053,0.896,0.104,1.345,0.154
					c0.37,0.041,0.741,0.079,1.11,0.117c0.446,0.047,0.891,0.09,1.338,0.134c0.134,0.011,0.271,0.028,0.405,0.041
					c0.23,0.021,0.462,0.038,0.693,0.059c0.467,0.041,0.934,0.082,1.401,0.119c0.368,0.03,0.736,0.056,1.104,0.083
					c0.465,0.034,0.931,0.067,1.397,0.098c0.188,0.012,0.375,0.028,0.564,0.04c0.178,0.011,0.356,0.019,0.534,0.03
					c0.488,0.028,0.975,0.054,1.463,0.081c0.361,0.017,0.721,0.035,1.083,0.052c0.495,0.021,0.992,0.04,1.488,0.059
					c0.243,0.009,0.485,0.021,0.729,0.028c0.106,0.003,0.212,0.005,0.316,0.008c0.565,0.017,1.131,0.029,1.696,0.04
					c0.295,0.007,0.592,0.014,0.887,0.019c0.74,0.011,1.482,0.017,2.224,0.017c0.11,0.001,0.22,0.003,0.329,0.003
					c0.008,0,0.019,0,0.027,0c0.897,0,1.793-0.008,2.69-0.02c0.271-0.005,0.544-0.012,0.815-0.019
					c0.629-0.011,1.258-0.026,1.885-0.046c0.134-0.003,0.267-0.006,0.399-0.009c0.181-0.007,0.359-0.018,0.537-0.024
					c0.666-0.023,1.328-0.053,1.994-0.083c0.294-0.014,0.589-0.028,0.883-0.042c0.837-0.045,1.672-0.095,2.507-0.151
					c0.086-0.006,0.172-0.01,0.257-0.015c0.014,0,0.027-0.003,0.04-0.003c1-0.07,1.996-0.15,2.991-0.237
					c0.273-0.023,0.544-0.048,0.815-0.073c0.794-0.073,1.585-0.153,2.377-0.234c0.161-0.017,0.324-0.031,0.486-0.05
					c0.104-0.011,0.207-0.023,0.313-0.034c0.237-0.026,0.477-0.056,0.717-0.082c0.495-0.058,0.99-0.117,1.484-0.178
					c0.256-0.033,0.513-0.064,0.769-0.097c0.505-0.065,1.008-0.134,1.51-0.202c0.226-0.031,0.449-0.062,0.673-0.092
					c0.714-0.103,1.427-0.207,2.139-0.318c0.003-0.002,0.006-0.003,0.009-0.003c0.786-0.123,1.568-0.251,2.349-0.385
					c0.137-0.023,0.273-0.049,0.408-0.073c0.643-0.112,1.286-0.226,1.926-0.346c0.282-0.052,0.562-0.109,0.842-0.163
					c0.494-0.095,0.987-0.189,1.479-0.29c0.313-0.062,0.624-0.131,0.935-0.195c0.458-0.096,0.915-0.19,1.369-0.289
					c0.014-0.003,0.026-0.006,0.04-0.009c0.195-0.044,0.389-0.091,0.584-0.133c0.574-0.128,1.15-0.258,1.722-0.393
					c0.291-0.069,0.581-0.142,0.873-0.214c0.483-0.116,0.969-0.233,1.451-0.356c0.32-0.081,0.637-0.165,0.955-0.249
					c0.452-0.117,0.901-0.234,1.349-0.357c0.334-0.088,0.662-0.182,0.994-0.274c0.431-0.12,0.861-0.24,1.289-0.365
					c0.338-0.097,0.673-0.198,1.007-0.298c0.419-0.124,0.839-0.249,1.255-0.377c0.339-0.105,0.676-0.21,1.012-0.319
					c0.408-0.128,0.818-0.26,1.226-0.392c0.338-0.111,0.673-0.224,1.009-0.337c0.404-0.135,0.805-0.272,1.205-0.41
					c0.335-0.117,0.668-0.236,1.002-0.354c0.397-0.143,0.792-0.286,1.187-0.431c0.33-0.121,0.66-0.244,0.989-0.368
					c0.393-0.149,0.784-0.3,1.175-0.451c0.324-0.127,0.648-0.254,0.972-0.383c0.39-0.157,0.775-0.315,1.161-0.474
					c0.319-0.131,0.638-0.263,0.956-0.397c0.387-0.163,0.77-0.328,1.154-0.496c0.311-0.134,0.62-0.27,0.929-0.407
					c0.387-0.172,0.771-0.349,1.154-0.526c0.299-0.137,0.601-0.274,0.897-0.415c0.391-0.184,0.776-0.371,1.163-0.558
					c0.285-0.138,0.573-0.276,0.855-0.417c0.402-0.199,0.797-0.403,1.194-0.606c0.264-0.134,0.528-0.267,0.79-0.403
					c0.438-0.229,0.869-0.464,1.301-0.698c0.215-0.117,0.433-0.23,0.646-0.348c0.643-0.354,1.279-0.715,1.909-1.081
					c19.437-11.294,29.164-26.074,29.206-40.877l0.081-28.01C508.5,82.64,498.771,97.42,479.336,108.715z"/>
				<linearGradient id="SVGID_19_" gradientUnits="userSpaceOnUse" x1="307.541" y1="67.5518" x2="508.542" y2="67.5518">
					<stop  offset="0" style="stop-color:#7827A8"/>
					<stop  offset="0.3253" style="stop-color:#6D32B0"/>
					<stop  offset="0.8997" style="stop-color:#5050C7"/>
					<stop  offset="1" style="stop-color:#4A56CB"/>
				</linearGradient>
				<path fill="url(#SVGID_19_)" d="M478.875,26.388c39.376,22.733,39.581,59.593,0.461,82.327
					c-39.119,22.733-102.751,22.735-142.128,0c-39.376-22.734-39.581-59.592-0.462-82.325
					C375.866,3.655,439.498,3.654,478.875,26.388z"/>
				<path fill="none" stroke="#27F5FF" stroke-miterlimit="10" d="M466.117,33.801c-15.614-9.015-36.336-13.979-58.342-13.979
					c-22.013,0-42.676,4.966-58.189,13.981c-15.51,9.014-24.016,20.999-23.943,33.749c0.071,12.747,8.709,24.733,24.324,33.748
					c15.615,9.016,36.335,13.98,58.342,13.979c22.011,0,42.674-4.966,58.184-13.979c15.515-9.015,24.021-21.001,23.949-33.75
					C490.37,54.803,481.731,42.817,466.117,33.801z"/>
				<g>
					<linearGradient id="SVGID_20_" gradientUnits="userSpaceOnUse" x1="306.041" y1="67.5518" x2="510.042" y2="67.5518">
						<stop  offset="0" style="stop-color:#C42992"/>
						<stop  offset="0.0784" style="stop-color:#B92992"/>
						<stop  offset="0.2172" style="stop-color:#9B2B92"/>
						<stop  offset="0.3991" style="stop-color:#6A2D93"/>
						<stop  offset="0.4822" style="stop-color:#522E93"/>
						<stop  offset="0.6001" style="stop-color:#6055A8"/>
						<stop  offset="0.8621" style="stop-color:#82B6DC"/>
						<stop  offset="1" style="stop-color:#95EBF9"/>
					</linearGradient>
					<path fill="none" stroke="url(#SVGID_20_)" stroke-width="3" stroke-miterlimit="10" d="M478.875,26.388
						c39.376,22.733,39.581,59.593,0.461,82.327c-39.119,22.733-102.751,22.735-142.128,0
						c-39.376-22.734-39.581-59.592-0.462-82.325C375.866,3.655,439.498,3.654,478.875,26.388z"/>
					<linearGradient id="SVGID_21_" gradientUnits="userSpaceOnUse" x1="305.9614" y1="111.2661" x2="510.043" y2="111.2661">
						<stop  offset="0" style="stop-color:#C4118B"/>
						<stop  offset="0.0784" style="stop-color:#B9148C"/>
						<stop  offset="0.2172" style="stop-color:#9B1B8E"/>
						<stop  offset="0.3991" style="stop-color:#6A2891"/>
						<stop  offset="0.4822" style="stop-color:#522E93"/>
						<stop  offset="0.6037" style="stop-color:#5855A9"/>
						<stop  offset="0.8737" style="stop-color:#67B6DF"/>
						<stop  offset="1" style="stop-color:#6EE5F9"/>
					</linearGradient>
					<path fill="none" stroke="url(#SVGID_21_)" stroke-width="3" stroke-miterlimit="10" d="M479.336,108.715
						c-0.631,0.366-1.269,0.727-1.91,1.081c-0.214,0.118-0.432,0.231-0.645,0.347c-0.433,0.234-0.865,0.468-1.303,0.698
						c-0.263,0.137-0.528,0.27-0.791,0.405c-0.396,0.204-0.792,0.406-1.192,0.605c-0.284,0.14-0.572,0.278-0.859,0.417
						c-0.385,0.187-0.77,0.374-1.158,0.558c-0.3,0.14-0.601,0.277-0.901,0.416c-0.383,0.176-0.766,0.352-1.151,0.525
						c-0.308,0.137-0.62,0.271-0.931,0.407c-0.383,0.167-0.767,0.334-1.154,0.497c-0.316,0.133-0.635,0.265-0.956,0.397
						c-0.384,0.159-0.771,0.317-1.158,0.471c-0.324,0.131-0.65,0.257-0.976,0.385c-0.391,0.152-0.779,0.302-1.171,0.45
						c-0.33,0.124-0.662,0.249-0.993,0.37c-0.393,0.146-0.787,0.289-1.184,0.43c-0.333,0.119-0.667,0.236-1.002,0.353
						c-0.4,0.14-0.802,0.276-1.205,0.412c-0.335,0.113-0.671,0.226-1.009,0.337c-0.407,0.132-0.816,0.263-1.228,0.393
						c-0.335,0.106-0.671,0.214-1.009,0.317c-0.418,0.129-0.837,0.254-1.255,0.38c-0.336,0.099-0.671,0.199-1.009,0.298
						c-0.428,0.123-0.859,0.243-1.29,0.362c-0.33,0.093-0.66,0.188-0.992,0.277c-0.448,0.12-0.897,0.237-1.348,0.355
						c-0.318,0.083-0.638,0.167-0.957,0.249c-0.48,0.122-0.966,0.239-1.451,0.357c-0.29,0.07-0.581,0.143-0.874,0.212
						c-0.57,0.135-1.146,0.264-1.722,0.393c-0.208,0.047-0.414,0.097-0.623,0.14c-0.454,0.102-0.912,0.194-1.367,0.29
						c-0.313,0.065-0.624,0.134-0.937,0.199c-0.491,0.1-0.985,0.193-1.478,0.288c-0.281,0.054-0.561,0.111-0.843,0.163
						c-0.641,0.12-1.283,0.234-1.926,0.347c-0.136,0.024-0.271,0.05-0.407,0.073c-0.78,0.133-1.564,0.262-2.347,0.385
						c-0.716,0.112-1.432,0.218-2.15,0.32c-0.222,0.032-0.445,0.061-0.669,0.094c-0.505,0.07-1.011,0.137-1.516,0.202
						c-0.254,0.034-0.508,0.065-0.765,0.098c-0.496,0.062-0.993,0.121-1.491,0.179c-0.236,0.028-0.474,0.054-0.712,0.08
						c-0.267,0.031-0.534,0.058-0.802,0.085c-0.789,0.084-1.58,0.162-2.371,0.233c-0.273,0.027-0.545,0.053-0.817,0.077
						c-0.995,0.084-1.992,0.166-2.991,0.235c-0.099,0.007-0.199,0.012-0.297,0.018c-0.835,0.056-1.67,0.106-2.506,0.15
						c-0.295,0.016-0.591,0.029-0.885,0.043c-0.664,0.033-1.328,0.059-1.993,0.083c-0.312,0.011-0.625,0.022-0.937,0.033
						c-0.629,0.02-1.256,0.034-1.886,0.046c-0.271,0.004-0.543,0.013-0.815,0.016c-0.896,0.014-1.792,0.024-2.688,0.022
						c-0.125,0-0.248-0.001-0.372-0.001c-0.735-0.003-1.473-0.009-2.209-0.019c-0.296-0.005-0.592-0.014-0.888-0.019
						c-0.565-0.012-1.131-0.023-1.695-0.04c-0.349-0.011-0.696-0.025-1.045-0.037c-0.497-0.017-0.994-0.036-1.489-0.059
						c-0.362-0.016-0.723-0.033-1.083-0.053c-0.486-0.023-0.973-0.05-1.459-0.079c-0.369-0.024-0.737-0.045-1.104-0.07
						c-0.463-0.03-0.928-0.062-1.391-0.097c-0.37-0.026-0.74-0.056-1.109-0.084c-0.466-0.038-0.931-0.078-1.396-0.118
						c-0.368-0.034-0.737-0.066-1.105-0.101c-0.445-0.043-0.89-0.088-1.334-0.135c-0.372-0.037-0.742-0.074-1.112-0.115
						c-0.449-0.05-0.897-0.102-1.343-0.154c-0.367-0.042-0.733-0.086-1.096-0.13c-0.451-0.057-0.898-0.117-1.346-0.177
						c-0.36-0.048-0.719-0.095-1.077-0.145c-0.459-0.064-0.917-0.131-1.373-0.198c-0.347-0.053-0.693-0.102-1.04-0.155
						c-0.47-0.073-0.941-0.152-1.412-0.228c-0.328-0.056-0.657-0.107-0.984-0.163c-0.506-0.086-1.006-0.176-1.509-0.267
						c-0.292-0.053-0.584-0.103-0.874-0.158c-0.8-0.149-1.598-0.302-2.392-0.462c-0.065-0.014-0.13-0.028-0.196-0.042
						c-0.729-0.149-1.457-0.302-2.182-0.46c-0.234-0.051-0.465-0.104-0.699-0.157c-0.57-0.129-1.138-0.257-1.706-0.391
						c-0.303-0.071-0.606-0.147-0.91-0.221c-0.492-0.119-0.984-0.239-1.476-0.365c-0.311-0.079-0.621-0.161-0.932-0.241
						c-0.503-0.132-1.008-0.265-1.509-0.402c-0.321-0.088-0.643-0.176-0.963-0.266c-0.487-0.137-0.975-0.278-1.46-0.418
						c-0.309-0.09-0.616-0.181-0.923-0.272c-0.618-0.186-1.234-0.376-1.846-0.569c-0.225-0.07-0.451-0.138-0.676-0.21
						c-0.827-0.266-1.65-0.537-2.466-0.818c-0.122-0.041-0.24-0.083-0.36-0.125c-0.802-0.277-1.599-0.561-2.389-0.854
						c-0.248-0.09-0.493-0.181-0.737-0.273c-0.833-0.312-1.66-0.629-2.479-0.958c-0.07-0.029-0.142-0.056-0.211-0.083
						c-0.123-0.049-0.244-0.1-0.367-0.149c-0.521-0.213-1.041-0.427-1.559-0.645c-0.223-0.095-0.445-0.192-0.667-0.288
						c-0.415-0.178-0.828-0.358-1.239-0.54c-0.244-0.108-0.489-0.219-0.73-0.329c-0.389-0.175-0.776-0.352-1.16-0.533
						c-0.246-0.114-0.491-0.229-0.735-0.345c-0.374-0.178-0.746-0.359-1.116-0.54c-0.257-0.126-0.516-0.252-0.773-0.38
						c-0.375-0.188-0.749-0.379-1.119-0.571c-0.242-0.123-0.481-0.246-0.722-0.372c-0.405-0.212-0.808-0.429-1.209-0.646
						c-0.2-0.108-0.399-0.214-0.599-0.323c-0.596-0.328-1.189-0.66-1.775-0.999c-0.557-0.321-1.104-0.648-1.646-0.975
						c-0.16-0.097-0.318-0.195-0.478-0.292c-0.391-0.24-0.778-0.482-1.163-0.724c-0.167-0.106-0.336-0.214-0.503-0.32
						c-0.453-0.292-0.9-0.584-1.341-0.879c-0.07-0.047-0.143-0.094-0.214-0.141c-0.506-0.342-1.004-0.686-1.495-1.034
						c-0.141-0.098-0.276-0.197-0.415-0.296c-0.356-0.255-0.71-0.511-1.059-0.769c-0.155-0.116-0.314-0.232-0.468-0.348
						c-0.353-0.267-0.704-0.535-1.05-0.805c-0.117-0.092-0.238-0.184-0.355-0.275c-0.453-0.357-0.898-0.716-1.336-1.079
						c-0.091-0.075-0.178-0.151-0.269-0.227c-0.348-0.291-0.692-0.583-1.03-0.877c-0.136-0.12-0.272-0.239-0.408-0.359
						c-0.299-0.265-0.596-0.531-0.886-0.798c-0.124-0.113-0.25-0.227-0.374-0.341c-0.396-0.369-0.787-0.739-1.169-1.112
						c-0.003-0.004-0.007-0.008-0.012-0.013c-0.385-0.376-0.76-0.756-1.129-1.138c-0.113-0.116-0.223-0.232-0.334-0.348
						c-0.261-0.275-0.52-0.55-0.773-0.827c-0.115-0.125-0.23-0.25-0.343-0.376c-0.276-0.306-0.547-0.613-0.813-0.921
						c-0.072-0.083-0.145-0.166-0.216-0.249c-0.333-0.392-0.659-0.785-0.977-1.181c-0.055-0.067-0.107-0.134-0.159-0.202
						c-0.271-0.339-0.535-0.68-0.794-1.022c-0.056-0.073-0.11-0.145-0.166-0.218c-0.285-0.381-0.563-0.765-0.833-1.148
						c-0.059-0.084-0.116-0.168-0.173-0.251c-0.248-0.355-0.49-0.711-0.724-1.069c-0.031-0.047-0.063-0.094-0.093-0.142
						c-0.254-0.39-0.5-0.783-0.738-1.174c-0.056-0.092-0.111-0.183-0.165-0.274c-0.238-0.398-0.47-0.796-0.695-1.196
						c-0.012-0.025-0.026-0.049-0.038-0.074c-0.223-0.401-0.438-0.803-0.645-1.206c-0.073-0.143-0.142-0.286-0.213-0.43
						c-0.142-0.286-0.284-0.572-0.42-0.86c-0.077-0.167-0.153-0.334-0.229-0.501c-0.12-0.266-0.238-0.532-0.353-0.798
						c-0.075-0.175-0.148-0.351-0.22-0.527c-0.117-0.284-0.231-0.568-0.341-0.853c-0.047-0.12-0.094-0.241-0.138-0.362
						c-0.153-0.414-0.303-0.827-0.44-1.242c-0.003-0.008-0.005-0.016-0.008-0.024c-0.134-0.408-0.26-0.816-0.382-1.225
						c-0.034-0.123-0.069-0.246-0.104-0.369c-0.095-0.334-0.185-0.668-0.271-1.003c-0.018-0.079-0.041-0.158-0.06-0.238
						c-0.1-0.405-0.191-0.812-0.276-1.219c-0.019-0.092-0.036-0.185-0.056-0.277c-0.072-0.356-0.137-0.714-0.196-1.07
						c-0.012-0.072-0.027-0.145-0.039-0.218c-0.065-0.406-0.123-0.812-0.173-1.218c-0.011-0.087-0.021-0.174-0.032-0.261
						c-0.049-0.413-0.092-0.826-0.124-1.24c-0.004-0.035-0.006-0.068-0.008-0.103c-0.029-0.374-0.052-0.748-0.067-1.122
						c-0.006-0.118-0.011-0.237-0.016-0.355c-0.013-0.418-0.023-0.837-0.021-1.256l-0.081,28.011
						c-0.002,0.418,0.008,0.836,0.023,1.254c0.004,0.119,0.01,0.237,0.015,0.355c0.006,0.137,0.008,0.273,0.016,0.409
						c0.015,0.238,0.033,0.474,0.05,0.711c0.003,0.035,0.004,0.07,0.008,0.105c0.032,0.414,0.076,0.826,0.125,1.238
						c0.011,0.088,0.021,0.175,0.031,0.263c0.048,0.373,0.098,0.745,0.157,1.117c0.006,0.033,0.012,0.066,0.018,0.1
						c0.011,0.072,0.025,0.145,0.038,0.217c0.06,0.357,0.125,0.714,0.197,1.071c0.018,0.092,0.036,0.185,0.056,0.276
						c0.084,0.407,0.176,0.814,0.275,1.22c0.019,0.079,0.041,0.157,0.061,0.236c0.047,0.187,0.092,0.372,0.143,0.557
						c0.04,0.15,0.084,0.298,0.126,0.447c0.036,0.123,0.069,0.246,0.105,0.37c0.12,0.408,0.246,0.816,0.382,1.223
						c0.002,0.008,0.005,0.017,0.007,0.024c0.138,0.415,0.287,0.829,0.44,1.242c0.045,0.122,0.092,0.243,0.139,0.364
						c0.058,0.152,0.113,0.304,0.174,0.456c0.053,0.133,0.11,0.263,0.165,0.396c0.073,0.177,0.147,0.353,0.222,0.529
						c0.113,0.266,0.231,0.531,0.353,0.795c0.075,0.168,0.15,0.336,0.229,0.503c0.134,0.288,0.276,0.574,0.42,0.86
						c0.071,0.143,0.14,0.287,0.213,0.429c0.207,0.404,0.422,0.807,0.646,1.208c0.012,0.025,0.024,0.048,0.038,0.072
						c0,0.002,0.002,0.003,0.004,0.004c0.222,0.399,0.454,0.796,0.691,1.192c0.054,0.09,0.109,0.183,0.163,0.272
						c0.24,0.394,0.485,0.785,0.738,1.176c0.031,0.047,0.063,0.095,0.095,0.142c0.234,0.358,0.475,0.713,0.721,1.068
						c0.059,0.084,0.117,0.169,0.176,0.252c0.27,0.385,0.548,0.767,0.833,1.148c0.054,0.071,0.11,0.145,0.165,0.218
						c0.258,0.342,0.523,0.68,0.793,1.021c0.054,0.067,0.106,0.136,0.16,0.204c0.03,0.034,0.057,0.071,0.086,0.107
						c0.289,0.36,0.587,0.716,0.892,1.073c0.07,0.082,0.144,0.165,0.216,0.249c0.266,0.307,0.537,0.615,0.813,0.92
						c0.112,0.126,0.228,0.251,0.344,0.377c0.253,0.276,0.51,0.552,0.773,0.827c0.109,0.115,0.22,0.232,0.332,0.347
						c0.37,0.381,0.745,0.761,1.13,1.138c0.005,0.005,0.011,0.01,0.017,0.016c0.379,0.372,0.77,0.741,1.165,1.109
						c0.123,0.113,0.249,0.228,0.372,0.34c0.292,0.268,0.586,0.533,0.887,0.798c0.135,0.12,0.271,0.239,0.41,0.359
						c0.338,0.295,0.68,0.586,1.029,0.877c0.089,0.076,0.179,0.151,0.269,0.228c0.437,0.362,0.884,0.722,1.337,1.078
						c0.117,0.093,0.236,0.185,0.354,0.274c0.345,0.269,0.696,0.539,1.051,0.805c0.154,0.117,0.311,0.232,0.468,0.349
						c0.348,0.257,0.7,0.514,1.056,0.769c0.14,0.1,0.276,0.198,0.417,0.298c0.492,0.346,0.99,0.689,1.495,1.031
						c0.072,0.048,0.146,0.096,0.218,0.143c0.439,0.294,0.885,0.587,1.337,0.876c0.166,0.108,0.336,0.214,0.503,0.322
						c0.188,0.12,0.375,0.24,0.564,0.358c0.198,0.123,0.399,0.245,0.597,0.365c0.16,0.098,0.319,0.196,0.48,0.294
						c0.542,0.327,1.088,0.651,1.646,0.975c0.585,0.337,1.177,0.671,1.773,0.998c0.2,0.11,0.402,0.216,0.601,0.324
						c0.402,0.218,0.804,0.434,1.209,0.646c0.238,0.125,0.48,0.248,0.72,0.372c0.373,0.191,0.745,0.381,1.121,0.57
						c0.255,0.126,0.515,0.252,0.773,0.38c0.221,0.109,0.44,0.221,0.662,0.327c0.152,0.071,0.303,0.141,0.453,0.213
						c0.245,0.115,0.488,0.229,0.734,0.345c0.386,0.18,0.772,0.358,1.162,0.534c0.242,0.109,0.484,0.219,0.729,0.327
						c0.411,0.184,0.825,0.363,1.24,0.542c0.223,0.095,0.444,0.191,0.666,0.286c0.52,0.22,1.041,0.435,1.564,0.647
						c0.121,0.048,0.241,0.099,0.361,0.148c0.015,0.007,0.031,0.012,0.048,0.019c0.054,0.023,0.111,0.043,0.165,0.064
						c0.819,0.328,1.648,0.646,2.481,0.958c0.242,0.092,0.487,0.183,0.731,0.273c0.792,0.291,1.588,0.578,2.391,0.855
						c0.093,0.032,0.184,0.067,0.277,0.098c0.029,0.009,0.056,0.019,0.083,0.027c0.817,0.28,1.64,0.552,2.467,0.817
						c0.223,0.072,0.449,0.142,0.674,0.212c0.613,0.193,1.229,0.383,1.847,0.566c0.125,0.038,0.25,0.08,0.375,0.117
						c0.182,0.053,0.367,0.103,0.547,0.157c0.486,0.142,0.973,0.281,1.462,0.418c0.32,0.089,0.64,0.179,0.961,0.266
						c0.503,0.137,1.008,0.27,1.512,0.401c0.212,0.056,0.42,0.114,0.633,0.17c0.099,0.023,0.198,0.047,0.295,0.073
						c0.494,0.125,0.987,0.246,1.482,0.366c0.301,0.073,0.603,0.148,0.905,0.219c0.567,0.134,1.137,0.263,1.706,0.391
						c0.206,0.045,0.411,0.095,0.617,0.142c0.028,0.006,0.056,0.01,0.082,0.015c0.724,0.16,1.452,0.312,2.183,0.461
						c0.064,0.013,0.129,0.028,0.194,0.041c0.795,0.16,1.593,0.315,2.394,0.464c0.024,0.003,0.046,0.009,0.069,0.013
						c0.265,0.049,0.53,0.094,0.794,0.142c0.506,0.09,1.011,0.182,1.518,0.269c0.329,0.056,0.658,0.108,0.986,0.161
						c0.47,0.079,0.939,0.156,1.412,0.229c0.059,0.008,0.116,0.019,0.177,0.028c0.287,0.043,0.576,0.084,0.862,0.125
						c0.457,0.068,0.914,0.137,1.372,0.202c0.36,0.05,0.718,0.096,1.078,0.143c0.447,0.06,0.896,0.12,1.346,0.175
						c0.095,0.013,0.191,0.026,0.288,0.038c0.268,0.034,0.539,0.062,0.807,0.094c0.448,0.053,0.896,0.104,1.345,0.154
						c0.37,0.041,0.741,0.079,1.11,0.117c0.446,0.047,0.891,0.09,1.338,0.134c0.134,0.011,0.271,0.028,0.405,0.041
						c0.23,0.021,0.462,0.038,0.693,0.059c0.467,0.041,0.934,0.082,1.401,0.119c0.368,0.03,0.736,0.056,1.104,0.083
						c0.465,0.034,0.931,0.067,1.397,0.098c0.188,0.012,0.375,0.028,0.564,0.04c0.178,0.011,0.356,0.019,0.534,0.03
						c0.488,0.028,0.975,0.054,1.463,0.081c0.361,0.017,0.721,0.035,1.083,0.052c0.495,0.021,0.992,0.04,1.488,0.059
						c0.243,0.009,0.485,0.021,0.729,0.028c0.106,0.003,0.212,0.005,0.316,0.008c0.565,0.017,1.131,0.029,1.696,0.04
						c0.295,0.007,0.592,0.014,0.887,0.019c0.74,0.011,1.482,0.017,2.224,0.017c0.11,0.001,0.22,0.003,0.329,0.003
						c0.008,0,0.019,0,0.027,0c0.897,0,1.793-0.008,2.69-0.02c0.271-0.005,0.544-0.012,0.815-0.019
						c0.629-0.011,1.258-0.026,1.885-0.046c0.134-0.003,0.267-0.006,0.399-0.009c0.181-0.007,0.359-0.018,0.537-0.024
						c0.666-0.023,1.328-0.053,1.994-0.083c0.294-0.014,0.589-0.028,0.883-0.042c0.837-0.045,1.672-0.095,2.507-0.151
						c0.086-0.006,0.172-0.01,0.257-0.015c0.014,0,0.027-0.003,0.04-0.003c1-0.07,1.996-0.15,2.991-0.237
						c0.273-0.023,0.544-0.048,0.815-0.073c0.794-0.073,1.585-0.153,2.377-0.234c0.161-0.017,0.324-0.031,0.486-0.05
						c0.104-0.011,0.207-0.023,0.313-0.034c0.237-0.026,0.477-0.056,0.717-0.082c0.495-0.058,0.99-0.117,1.484-0.178
						c0.256-0.033,0.513-0.064,0.769-0.097c0.505-0.065,1.008-0.134,1.51-0.202c0.226-0.031,0.449-0.062,0.673-0.092
						c0.714-0.103,1.427-0.207,2.139-0.318c0.003-0.002,0.006-0.003,0.009-0.003c0.786-0.123,1.568-0.251,2.349-0.385
						c0.137-0.023,0.273-0.049,0.408-0.073c0.643-0.112,1.286-0.226,1.926-0.346c0.282-0.052,0.562-0.109,0.842-0.163
						c0.494-0.095,0.987-0.189,1.479-0.29c0.313-0.062,0.624-0.131,0.935-0.195c0.458-0.096,0.915-0.19,1.369-0.289
						c0.014-0.003,0.026-0.006,0.04-0.009c0.195-0.044,0.389-0.091,0.584-0.133c0.574-0.128,1.15-0.258,1.722-0.393
						c0.291-0.069,0.581-0.142,0.873-0.214c0.483-0.116,0.969-0.233,1.451-0.356c0.32-0.081,0.637-0.165,0.955-0.249
						c0.452-0.117,0.901-0.234,1.349-0.357c0.334-0.088,0.662-0.182,0.994-0.274c0.431-0.12,0.861-0.24,1.289-0.365
						c0.338-0.097,0.673-0.198,1.007-0.298c0.419-0.124,0.839-0.249,1.255-0.377c0.339-0.105,0.676-0.21,1.012-0.319
						c0.408-0.128,0.818-0.26,1.226-0.392c0.338-0.111,0.673-0.224,1.009-0.337c0.404-0.135,0.805-0.272,1.205-0.41
						c0.335-0.117,0.668-0.236,1.002-0.354c0.397-0.143,0.792-0.286,1.187-0.431c0.33-0.121,0.66-0.244,0.989-0.368
						c0.393-0.149,0.784-0.3,1.175-0.451c0.324-0.127,0.648-0.254,0.972-0.383c0.39-0.157,0.775-0.315,1.161-0.474
						c0.319-0.131,0.638-0.263,0.956-0.397c0.387-0.163,0.77-0.328,1.154-0.496c0.311-0.134,0.62-0.27,0.929-0.407
						c0.387-0.172,0.771-0.349,1.154-0.526c0.299-0.137,0.601-0.274,0.897-0.415c0.391-0.184,0.776-0.371,1.163-0.558
						c0.285-0.138,0.573-0.276,0.855-0.417c0.402-0.199,0.797-0.403,1.194-0.606c0.264-0.134,0.528-0.267,0.79-0.403
						c0.438-0.229,0.869-0.464,1.301-0.698c0.215-0.117,0.433-0.23,0.646-0.348c0.643-0.354,1.279-0.715,1.909-1.081
						c19.437-11.294,29.164-26.074,29.206-40.877l0.081-28.01C508.5,82.64,498.771,97.42,479.336,108.715z"/>
				</g>
				<g>
					<g>
						<path fill="#443E9F" d="M449.648,52.218l12.995-7.553l-8.784-5.073l-13.098,7.611c-13.97-6.457-29.201-7.091-39.816-0.922
							c-13.193,7.668-6.081,16.027,0.929,23.521l-19.844,11.531c-5.597-4.382-9.416-10.494-9.947-17.123l-15.213,2.939
							c0.539,7.092,5.258,14.643,14.052,20.639l-13.891,8.072l8.786,5.073l13.989-8.13c14.169,6.457,29.998,7.208,41.011,0.808
							c13.692-7.841,6.275-16.489-0.835-24.156L438.34,58.79c3.8,3.113,7.407,7.38,9.524,12.396l15.209-3.17
							C461.254,62.71,456.543,57.002,449.648,52.218z M407.144,86.405c-4.167,2.422-9.941,2.307-16.226-0.057l17.065-9.917
							C410.891,80.294,411.807,83.696,407.144,86.405z M414.177,62.653c-2.71-3.632-3.324-6.86,1.041-9.397
							c3.769-2.19,9.047-1.901,14.532,0.347L414.177,62.653z"/>
						<polygon fill="#443E9F" points="462.644,40.042 462.644,44.665 456.74,43.473 						"/>
						<polygon fill="#443E9F" points="357.033,91.238 357.033,95.861 361.24,93.55 						"/>
						<polygon fill="#443E9F" points="463.073,63.392 463.073,68.015 459.692,64.097 						"/>
					</g>
					<linearGradient id="SVGID_22_" gradientUnits="userSpaceOnUse" x1="356.8716" y1="65.6401" x2="463.0732" y2="65.6401">
						<stop  offset="0" style="stop-color:#6DE1F7"/>
						<stop  offset="0.2381" style="stop-color:#78E6F7"/>
						<stop  offset="0.6583" style="stop-color:#96F3F8"/>
						<stop  offset="1" style="stop-color:#B3FFF8"/>
					</linearGradient>
					<path fill="url(#SVGID_22_)" d="M449.648,47.595l12.995-7.553l-8.784-5.073l-13.098,7.611
						c-13.97-6.457-29.201-7.091-39.816-0.922c-13.193,7.668-6.081,16.027,0.929,23.521L382.031,76.71
						c-5.597-4.382-9.416-10.494-9.947-17.123l-15.213,2.939c0.539,7.092,5.258,14.643,14.052,20.639l-13.891,8.072l8.786,5.073
						l13.989-8.13c14.169,6.457,29.998,7.207,41.011,0.808c13.692-7.841,6.275-16.489-0.835-24.156l18.356-10.667
						c3.8,3.113,7.407,7.38,9.524,12.396l15.209-3.17C461.254,58.088,456.543,52.38,449.648,47.595z M407.144,81.782
						c-4.167,2.422-9.941,2.306-16.226-0.058l17.065-9.917C410.891,75.672,411.807,79.073,407.144,81.782z M414.177,58.03
						c-2.71-3.632-3.324-6.86,1.041-9.397c3.769-2.19,9.047-1.901,14.532,0.347L414.177,58.03z"/>
				</g>
			</g>
		</g>
	</g>
</g>
<g>
	<g>
		<g>
			<g>
				<circle opacity="0.9" fill="#42E8E0" cx="490.829" cy="216.489" r="7.795"/>
				<circle opacity="0.3" fill="#42E8E0" cx="596.086" cy="265.705" r="4.817"/>
				<path opacity="0.2" fill="#42E8E0" d="M564.587,324.588c-0.334-2.691,1.576-5.145,4.27-5.479
					c2.689-0.338,5.145,1.572,5.479,4.265c0.338,2.691-1.575,5.147-4.266,5.481C567.378,329.189,564.925,327.281,564.587,324.588z"
					/>
				<circle opacity="0.2" fill="#42E8E0" cx="428.733" cy="359.548" r="3.104"/>
				<circle opacity="0.2" fill="#42E8E0" cx="442.088" cy="374.219" r="6.508"/>
				<circle opacity="0.2" fill="#42E8E0" cx="583.93" cy="332.075" r="3.149"/>
				<path opacity="0.3" fill="#42E8E0" d="M565.762,180.752c-0.327-2.64,1.545-5.046,4.184-5.376
					c2.641-0.329,5.049,1.544,5.379,4.184c0.327,2.64-1.545,5.047-4.186,5.376C568.5,185.266,566.092,183.392,565.762,180.752z"/>
				<circle opacity="0.2" fill="#42E8E0" cx="543.918" cy="238.432" r="4.911"/>
				<circle opacity="0.2" fill="#42E8E0" cx="558.385" cy="246.526" r="3.15"/>
			</g>
			<g>
				<circle opacity="0.9" fill="#42E8E0" cx="511.646" cy="293.927" r="6.923"/>
				<circle opacity="0.3" fill="#42E8E0" cx="450.419" cy="376.979" r="4.277"/>
				<path opacity="0.2" fill="#42E8E0" d="M499.97,409.551c-0.88-2.245-3.409-3.35-5.652-2.469c-2.24,0.882-3.346,3.412-2.466,5.654
					c0.881,2.24,3.412,3.347,5.656,2.467C499.748,414.323,500.853,411.791,499.97,409.551z"/>
				<circle opacity="0.2" fill="#42E8E0" cx="620.783" cy="379.178" r="2.758"/>
				<circle opacity="0.2" fill="#42E8E0" cx="616.59" cy="396.291" r="5.779"/>
				<path opacity="0.2" fill="#42E8E0" d="M490.664,422.573c-0.564-1.438-2.188-2.147-3.625-1.583
					c-1.438,0.565-2.146,2.188-1.581,3.629c0.564,1.436,2.188,2.145,3.625,1.58C490.521,425.634,491.228,424.012,490.664,422.573z"
					/>
				<circle opacity="0.2" fill="#42E8E0" cx="430.728" cy="196.959" r="3.105"/>
				<circle opacity="0.2" fill="#42E8E0" cx="428.178" cy="216.635" r="6.507"/>
				<circle opacity="0.3" fill="#42E8E0" cx="431.464" cy="224.771" r="4.277"/>
				<path opacity="0.2" fill="#42E8E0" d="M438.682,283.63c1.138-2.124,0.344-4.768-1.779-5.908
					c-2.121-1.138-4.763-0.345-5.906,1.777c-1.139,2.124-0.344,4.769,1.779,5.906C434.896,286.546,437.538,285.752,438.682,283.63z"
					/>
				<circle opacity="0.2" fill="#42E8E0" cx="420.264" cy="283.633" r="2.797"/>
				<g opacity="0.9">
					<path fill="#42E8E0" d="M517.388,133.526c-1.397-3.558-5.414-5.31-8.972-3.914c-3.559,1.398-5.311,5.415-3.915,8.973
						c1.399,3.558,5.416,5.311,8.974,3.913C517.033,141.102,518.783,137.084,517.388,133.526z"/>
					<circle fill="#42E8E0" cx="497.595" cy="174.954" r="4.895"/>
				</g>
			</g>
		</g>
	</g>
	<g>
		<g>
			<circle opacity="0.9" fill="#42E8E0" cx="261.293" cy="237.839" r="7.795"/>
			<circle opacity="0.3" fill="#42E8E0" cx="235.496" cy="124.542" r="4.817"/>
			<circle opacity="0.2" fill="#42E8E0" cx="297.839" cy="109.767" r="4.911"/>
			<circle opacity="0.2" fill="#42E8E0" cx="412.333" cy="198.992" r="3.105"/>
			<circle opacity="0.2" fill="#42E8E0" cx="415.711" cy="179.441" r="6.509"/>
			<circle opacity="0.2" fill="#42E8E0" cx="295.343" cy="93.379" r="3.149"/>
			<circle opacity="0.3" fill="#42E8E0" cx="183.667" cy="197.24" r="4.817"/>
			<circle opacity="0.2" fill="#42E8E0" cx="246.01" cy="182.464" r="4.911"/>
			<circle opacity="0.2" fill="#42E8E0" cx="243.514" cy="166.075" r="3.15"/>
		</g>
		<g>
			<circle opacity="0.9" fill="#42E8E0" cx="309.626" cy="173.854" r="6.921"/>
			<circle opacity="0.3" fill="#42E8E0" cx="412.773" cy="171.172" r="4.277"/>
			<circle opacity="0.2" fill="#42E8E0" cx="411.797" cy="114.287" r="4.361"/>
			<circle opacity="0.2" fill="#42E8E0" cx="309.886" cy="35.366" r="2.757"/>
			<circle opacity="0.2" fill="#42E8E0" cx="325.966" cy="28.166" r="5.78"/>
			<circle opacity="0.2" fill="#42E8E0" cx="426.445" cy="112.836" r="2.797"/>
			<circle opacity="0.2" fill="#42E8E0" cx="282.79" cy="297.263" r="3.106"/>
			<circle opacity="0.2" fill="#42E8E0" cx="299.884" cy="287.195" r="6.508"/>
			<circle opacity="0.3" fill="#42E8E0" cx="304.289" cy="279.605" r="4.278"/>
			<circle opacity="0.2" fill="#42E8E0" cx="347.039" cy="242.063" r="4.362"/>
			<circle opacity="0.2" fill="#42E8E0" cx="357.62" cy="252.296" r="2.797"/>
			<g opacity="0.9">
				<circle fill="#42E8E0" cx="185.461" cy="271.358" r="6.922"/>
				<circle fill="#42E8E0" cx="224.359" cy="258.006" r="4.894"/>
			</g>
		</g>
	</g>
</g>
</svg>
